<svg width="318" height="499" viewBox="0 0 318 499" fill="none" xmlns="http://www.w3.org/2000/svg">
<path fill-rule="evenodd" clip-rule="evenodd" d="M47.0715 47.0482C76.7284 17.3941 116.937 0.715249 158.877 0.671021C200.813 0.71927 241.018 17.3999 270.672 47.0535C300.325 76.7072 317.006 116.912 317.054 158.849V340.179C317.054 340.265 317.03 341.23 317.007 342.172C316.985 343.071 316.963 343.949 316.963 344.023C314.927 429.128 243.951 498.357 158.877 498.357C116.937 498.313 76.7284 481.634 47.0715 451.98C17.4145 422.326 0.73185 382.118 0.683594 340.179V158.849C0.73185 116.91 17.4145 76.7023 47.0715 47.0482ZM181.968 184.493V158.925C181.968 155.886 181.37 152.878 180.207 150.071C179.044 147.263 177.34 144.713 175.191 142.564C173.043 140.416 170.492 138.712 167.685 137.549C164.878 136.386 161.869 135.788 158.831 135.788C155.793 135.788 152.784 136.386 149.977 137.549C147.17 138.712 144.619 140.416 142.47 142.564C140.322 144.713 138.618 147.263 137.455 150.071C136.292 152.878 135.694 155.886 135.694 158.925C135.663 164.309 137.53 169.532 140.967 173.677C144.403 177.822 149.19 180.624 154.486 181.591C155.149 181.764 158.424 182.074 163.83 182.585L164.725 182.67C165.097 182.705 165.474 182.741 165.855 182.777C171.568 183.316 178.208 183.944 181.057 184.371L181.968 184.493ZM196.081 158.849V186.468L196.795 186.589C202.07 187.884 207.262 189.448 212.353 191.271V158.849C212.353 148.291 209.223 137.97 203.358 129.19C197.494 120.41 189.159 113.566 179.406 109.522C169.653 105.478 158.92 104.416 148.563 106.471C138.207 108.525 128.692 113.603 121.221 121.064C113.75 128.524 108.658 138.032 106.589 148.385C104.52 158.739 105.567 169.473 109.597 179.232C113.627 188.991 120.459 197.336 129.231 203.213C138.002 209.089 148.319 212.234 158.877 212.249C184.182 212.255 208.917 219.764 229.953 233.827C250.99 247.891 267.385 267.876 277.064 291.257C286.742 314.637 289.271 340.363 284.33 365.18C279.388 389.998 267.198 412.793 249.302 430.682C231.406 448.572 208.607 460.754 183.787 465.687C158.968 470.619 133.244 468.081 109.867 458.394C86.4896 448.707 66.51 432.306 52.4543 411.264C38.3986 390.222 30.898 365.484 30.901 340.18V158.849C30.901 124.916 44.381 92.3725 68.3755 68.3779C92.37 44.3834 124.914 30.9034 158.847 30.9034C192.78 30.9034 225.324 44.3834 249.318 68.3779C273.313 92.3725 286.793 124.916 286.793 158.849V247.063C292.399 254.779 297.309 263.01 301.452 271.664L302.971 274.824V158.849C303.167 139.807 299.585 120.914 292.433 103.265C285.282 85.6157 274.702 69.5595 261.305 56.0248C247.909 42.4902 231.962 31.7458 214.387 24.4131C196.812 17.0804 177.958 13.3049 158.915 13.3049C139.871 13.3049 121.017 17.0804 103.442 24.4131C85.8669 31.7458 69.9202 42.4902 56.5238 56.0248C43.1275 69.5595 32.5475 85.6157 25.3956 103.265C18.2438 120.914 14.6621 139.807 14.8576 158.849V340.179C14.9139 378.357 30.1058 414.954 57.1028 441.948C84.0999 468.943 120.699 484.131 158.877 484.183C236.264 484.183 300.875 421.258 302.88 343.916V340.134C302.831 308.613 292.463 277.975 273.361 252.902C254.26 227.828 227.475 209.697 197.099 201.28H196.841C185.756 198.166 174.322 196.467 162.811 196.221C161.459 196.115 160.122 196.115 158.831 196.115C151.46 196.118 144.253 193.935 138.123 189.842C131.993 185.749 127.214 179.93 124.391 173.12C121.568 166.311 120.828 158.818 122.264 151.588C123.701 144.358 127.248 137.717 132.46 132.503C137.671 127.29 144.311 123.739 151.54 122.3C158.769 120.861 166.263 121.598 173.073 124.418C179.883 127.239 185.704 132.015 189.8 138.144C193.895 144.272 196.081 151.478 196.081 158.849ZM272.755 230.316V158.849C272.755 143.901 269.811 129.098 264.09 115.288C258.37 101.477 249.985 88.9279 239.415 78.3575C228.844 67.7872 216.296 59.4023 202.485 53.6817C188.674 47.961 173.872 45.0167 158.923 45.0167C143.974 45.0167 129.172 47.961 115.361 53.6817C101.55 59.4023 89.0014 67.7872 78.431 78.3575C67.8607 88.9279 59.4758 101.477 53.7552 115.288C48.0346 129.098 45.0902 143.901 45.0902 158.849V340.18C45.0842 362.694 51.7545 384.704 64.2576 403.427C76.7607 422.15 94.535 436.745 115.333 445.366C136.131 453.987 159.018 456.248 181.101 451.862C203.183 447.475 223.469 436.639 239.393 420.723C255.317 404.808 266.164 384.528 270.562 362.448C274.96 340.367 272.712 317.479 264.102 296.676C255.492 275.874 240.906 258.092 222.19 245.578C203.474 233.065 181.467 226.383 158.953 226.377C145.597 226.38 132.54 222.422 121.433 215.004C110.326 207.586 101.668 197.041 96.5548 184.702C91.4415 172.363 90.102 158.785 92.7059 145.685C95.3097 132.585 101.74 120.551 111.183 111.105C120.627 101.66 132.659 95.227 145.758 92.6202C158.858 90.0134 172.436 91.3497 184.776 96.4603C197.116 101.571 207.664 110.226 215.084 121.331C222.505 132.437 226.466 145.493 226.466 158.849V197.11C231.948 199.696 237.279 202.596 242.433 205.799V158.898C242.433 142.372 237.532 126.218 228.351 112.477C219.17 98.7364 206.121 88.0269 190.853 81.7028C175.585 75.3787 158.785 73.724 142.577 76.9481C126.369 80.1721 111.481 88.1299 99.7952 99.8153C88.1097 111.501 80.1519 126.389 76.9279 142.597C73.7039 158.805 75.3586 175.605 81.6827 190.873C88.0068 206.141 98.7162 219.19 112.457 228.372C126.197 237.553 142.352 242.453 158.878 242.453C178.207 242.453 197.102 248.185 213.173 258.924C229.245 269.662 241.771 284.925 249.168 302.783C256.565 320.641 258.5 340.291 254.729 359.249C250.958 378.206 241.65 395.62 227.983 409.288C214.315 422.955 196.901 432.263 177.944 436.034C158.986 439.805 139.336 437.87 121.478 430.473C103.621 423.076 88.3574 410.55 77.6187 394.478C66.8801 378.407 61.1484 359.512 61.1484 340.183V158.852C61.4689 133.146 71.9056 108.601 90.1972 90.5362C108.489 72.4713 133.162 62.3414 158.87 62.3414C184.578 62.3414 209.251 72.4713 227.543 90.5362C245.834 108.601 256.271 133.146 256.592 158.852V215.712C257.291 216.261 257.985 216.816 258.675 217.377C263.638 221.411 268.339 225.733 272.755 230.316ZM162.079 303.549C148.179 302.197 139.14 301.027 129.857 299.371L121.608 297.852V340.1C121.826 349.735 125.77 358.911 132.611 365.699C139.452 372.487 148.658 376.36 158.294 376.503C167.93 376.647 177.247 373.05 184.287 366.469C191.328 359.887 195.543 350.834 196.048 341.209V339.478C195.79 330.361 192.183 321.66 185.918 315.033C179.653 308.406 171.167 304.318 162.079 303.549ZM181.965 340.131V340.739C181.891 346.875 179.382 352.73 174.99 357.017C170.598 361.303 164.684 363.669 158.547 363.595C152.411 363.52 146.555 361.011 142.269 356.619C137.983 352.227 135.617 346.313 135.691 340.176V314.669L136.587 314.791C143.378 315.748 149.804 316.507 156.762 317.191C158.038 317.358 159.314 317.465 160.53 317.556H161.031C166.674 318.117 171.916 320.722 175.772 324.88C179.628 329.038 181.83 334.462 181.965 340.131ZM205.298 270.663C191.558 261.482 175.403 256.582 158.878 256.582C142.53 256.594 126.442 252.485 112.103 244.633C97.764 236.781 85.6364 225.44 76.8416 211.659L75.3224 209.365V340.137C75.3224 356.663 80.2228 372.817 89.404 386.558C98.5852 400.298 111.635 411.008 126.902 417.332C142.17 423.656 158.97 425.311 175.178 422.087C191.387 418.863 206.275 410.905 217.96 399.22C229.646 387.534 237.603 372.646 240.827 356.438C244.051 340.23 242.397 323.429 236.073 308.162C229.749 292.894 219.039 279.844 205.298 270.663ZM158.879 272.71C137.99 272.71 121.157 268.897 105.889 260.678L93.1435 253.659L91.3509 252.672V340.177C91.3388 353.535 95.2891 366.597 102.702 377.71C110.115 388.823 120.657 397.488 132.995 402.608C145.333 407.728 158.912 409.074 172.015 406.475C185.119 403.877 197.157 397.45 206.607 388.009C216.057 378.567 222.494 366.535 225.105 353.434C227.715 340.333 226.381 326.753 221.272 314.41C216.163 302.067 207.508 291.517 196.401 284.095C185.295 276.672 172.237 272.71 158.879 272.71ZM212.354 340.177C212.354 354.339 206.728 367.922 196.714 377.936C186.699 387.95 173.117 393.576 158.955 393.576C144.792 393.576 131.21 387.95 121.196 377.936C111.181 367.922 105.555 354.339 105.555 340.177V276.25L106.664 276.736C122.038 283.496 139.129 286.778 158.955 286.778C173.112 286.794 186.685 292.425 196.696 302.436C206.707 312.446 212.338 326.019 212.354 340.177Z" fill="black"/>
</svg>
