<svg width="831" height="499" viewBox="0 0 831 499" fill="none" xmlns="http://www.w3.org/2000/svg">
<path d="M412.968 205.488C431.147 205.488 446.554 211.71 459.192 224.153C471.634 236.596 477.856 251.955 477.856 270.23C477.856 288.603 471.634 304.011 459.192 316.453C446.749 328.896 431.39 335.118 413.114 335.118C394.741 335.118 379.334 328.896 366.891 316.453C354.448 304.011 348.227 288.603 348.227 270.23C348.227 255.746 352.407 242.72 360.767 231.152L438.34 125.436H444.027L376.806 216.57C387.499 209.182 399.553 205.488 412.968 205.488ZM370.245 313.246C381.618 324.813 395.859 330.597 412.968 330.597C429.98 330.597 444.27 324.813 455.838 313.246C467.309 301.775 473.044 287.436 473.044 270.23C473.044 253.024 467.309 238.686 455.838 227.215C444.27 215.647 429.98 209.863 412.968 209.863C395.859 209.863 381.618 215.647 370.245 227.215C358.774 238.686 353.038 253.024 353.038 270.23C353.038 287.436 358.774 301.775 370.245 313.246Z" fill="black"/>
<path fill-rule="evenodd" clip-rule="evenodd" d="M462.477 220.843L462.49 220.855C475.845 234.21 482.52 250.771 482.52 270.23C482.52 289.779 475.85 306.392 462.49 319.751C449.136 333.105 432.574 339.781 413.115 339.781C393.567 339.781 376.954 333.11 363.595 319.751C350.235 306.392 343.564 289.779 343.564 270.23C343.564 254.781 348.045 240.796 356.988 228.42L356.998 228.407L435.979 120.773H453.262L391.878 203.995C398.537 201.881 405.574 200.825 412.97 200.825C432.338 200.825 448.931 207.504 462.465 220.83L462.477 220.843ZM360.768 231.152C356.115 237.589 352.758 244.479 350.694 251.819C349.05 257.67 348.228 263.806 348.228 270.23C348.228 285.778 352.683 299.202 361.593 310.503C363.212 312.556 364.979 314.54 366.892 316.454C366.907 316.469 366.922 316.484 366.937 316.499C366.946 316.508 366.956 316.517 366.965 316.526C379.362 328.888 394.697 335.085 412.97 335.118C413.018 335.118 413.067 335.118 413.115 335.118C431.355 335.118 446.69 328.921 459.12 316.526C459.144 316.502 459.168 316.478 459.193 316.454C461.106 314.54 462.872 312.557 464.491 310.504C473.402 299.203 477.857 285.778 477.857 270.23C477.857 258.881 475.458 248.657 470.659 239.557C467.731 234.003 463.909 228.869 459.193 224.153C459.144 224.104 459.095 224.056 459.046 224.008C446.436 211.662 431.077 205.488 412.97 205.488C403.563 205.488 394.825 207.305 386.757 210.937C383.635 212.343 380.614 214.02 377.693 215.969C377.397 216.167 377.102 216.367 376.807 216.57L444.028 125.436H438.341L360.768 231.152ZM365.947 231.976C365.448 232.592 364.963 233.214 364.492 233.844C364.486 233.852 364.479 233.861 364.472 233.87C360.151 239.661 357.055 246.065 355.184 253.08C353.754 258.44 353.04 264.156 353.04 270.23C353.04 284.74 357.118 297.21 365.275 307.641C366.771 309.553 368.403 311.397 370.173 313.173C370.197 313.197 370.221 313.221 370.246 313.246C381.619 324.814 395.861 330.598 412.97 330.598C413.018 330.598 413.067 330.597 413.115 330.597C430.063 330.564 444.304 324.78 455.839 313.246C455.863 313.221 455.888 313.197 455.912 313.173C457.682 311.397 459.314 309.553 460.81 307.641C468.967 297.21 473.045 284.74 473.045 270.23C473.045 259.634 470.87 250.125 466.52 241.704C463.841 236.519 460.338 231.746 456.009 227.386C456.001 227.378 455.993 227.369 455.985 227.361C455.936 227.312 455.888 227.263 455.839 227.215C444.271 215.647 429.981 209.863 412.97 209.863C401.011 209.863 390.453 212.689 381.296 218.341C380.92 218.573 380.545 218.811 380.173 219.053C379.794 219.299 379.418 219.551 379.044 219.807C379.01 219.83 378.977 219.853 378.944 219.876C375.879 221.988 372.979 224.435 370.246 227.215C368.71 228.751 367.277 230.338 365.947 231.976ZM373.557 309.962L373.571 309.976C384.016 320.6 397.035 325.934 412.97 325.934C428.799 325.934 441.886 320.603 452.542 309.948C463.081 299.409 468.382 286.283 468.382 270.23C468.382 254.178 463.081 241.051 452.542 230.512C441.886 219.857 428.799 214.526 412.97 214.526C397.035 214.526 384.016 219.861 373.571 230.484L373.557 230.498L373.543 230.512C363.004 241.051 357.703 254.178 357.703 270.23C357.703 286.283 363.004 299.409 373.543 309.948L373.557 309.962Z" fill="black"/>
<path fill-rule="evenodd" clip-rule="evenodd" d="M687.385 173.103C681.015 169.277 674.008 167.363 666.364 167.363C660.985 167.363 655.889 168.426 651.076 170.552C646.405 172.536 642.3 175.513 638.761 179.481V170.127H624.322V265.01H638.761V209.457C638.761 204.497 639.964 199.961 642.371 195.851C644.918 191.599 648.316 188.268 652.562 185.859C656.809 183.308 661.41 182.032 666.364 182.032C671.318 182.032 675.919 183.308 680.166 185.859C684.412 188.268 687.739 191.599 690.145 195.851C692.693 199.961 693.967 204.497 693.967 209.457V265.01H708.618V209.457C708.618 201.804 706.707 194.788 702.885 188.41C699.063 181.891 693.896 176.788 687.385 173.103Z" fill="black"/>
<path fill-rule="evenodd" clip-rule="evenodd" d="M762.206 344.114C780.248 344.114 795.317 338.733 807.413 327.969C819.509 317.411 825.557 304.084 825.557 287.99C825.557 257.135 804.645 236.787 762.821 226.946C726.328 218.335 708.081 200.396 708.081 173.129C708.081 159.085 713.258 147.347 723.611 137.916C733.862 128.588 746.727 123.924 762.206 123.924C777.788 123.924 790.806 128.998 801.262 139.147C811.616 149.5 816.793 162.16 816.793 177.126H821.405C821.405 160.52 815.767 146.681 804.491 135.61C793.01 124.641 778.915 119.157 762.206 119.157C745.292 119.157 731.248 124.283 720.075 134.534C708.696 144.785 703.007 157.65 703.007 173.129C703.007 202.959 722.535 222.436 761.591 231.559C800.852 240.99 820.483 259.8 820.483 287.99C820.483 302.752 814.947 314.951 803.876 324.586C792.703 334.427 778.813 339.348 762.206 339.348C745.702 339.348 731.812 334.017 720.536 323.356C709.26 312.695 703.622 299.42 703.622 283.531H699.009C699.009 300.855 705.057 315.258 717.153 326.739C729.249 338.323 744.267 344.114 762.206 344.114ZM552.705 416.621C569.59 416.621 583.692 411.585 595.012 401.512C606.332 391.631 611.992 379.16 611.992 364.098C611.992 335.222 592.422 316.179 553.281 306.97C519.129 298.911 502.053 282.123 502.053 256.605C502.053 243.462 506.897 232.478 516.586 223.652C526.18 214.922 538.219 210.557 552.705 210.557C567.287 210.557 579.471 215.306 589.256 224.803C598.945 234.492 603.79 246.34 603.79 260.346H608.107C608.107 244.805 602.83 231.854 592.278 221.493C581.533 211.229 568.342 206.096 552.705 206.096C536.876 206.096 523.733 210.893 513.277 220.486C502.628 230.079 497.304 242.119 497.304 256.605C497.304 284.522 515.579 302.749 552.13 311.287C588.872 320.113 607.243 337.716 607.243 364.098C607.243 377.912 602.063 389.328 591.702 398.346C581.245 407.556 568.246 412.161 552.705 412.161C537.26 412.161 524.261 407.172 513.708 397.195C503.156 387.218 497.879 374.795 497.879 359.925H493.562C493.562 376.138 499.223 389.616 510.543 400.361C521.863 411.201 535.917 416.621 552.705 416.621Z" fill="black"/>
<path fill-rule="evenodd" clip-rule="evenodd" d="M808.342 320.237C816.437 311.362 820.484 300.613 820.484 287.991C820.484 265.697 808.207 249.269 783.651 238.708C777.193 235.93 769.886 233.558 761.73 231.592C761.729 231.592 761.728 231.592 761.727 231.592C761.682 231.581 761.637 231.57 761.593 231.559C751.214 229.135 742.215 225.98 734.595 222.093C713.537 211.354 703.008 195.032 703.008 173.129C703.008 158.714 707.942 146.566 717.81 136.685C718.539 135.956 719.294 135.239 720.076 134.534C720.159 134.458 720.242 134.382 720.325 134.307C720.325 134.307 720.326 134.306 720.327 134.306C731.459 124.207 745.42 119.158 762.208 119.158C778.917 119.158 793.012 124.642 804.493 135.61C804.528 135.644 804.562 135.679 804.597 135.713C804.614 135.729 804.631 135.746 804.648 135.763C814.694 145.695 820.223 157.843 821.237 172.209C821.35 173.82 821.407 175.46 821.407 177.127H816.794C816.794 162.16 811.617 149.5 801.264 139.147C801.238 139.122 801.212 139.097 801.186 139.072C801.17 139.056 801.155 139.041 801.139 139.026C790.704 128.958 777.727 123.924 762.208 123.924C746.729 123.924 733.864 128.588 723.613 137.917C723.534 137.989 723.456 138.06 723.378 138.132C723.367 138.142 723.356 138.152 723.345 138.162C722.642 138.811 721.963 139.471 721.308 140.142C712.491 149.173 708.083 160.169 708.083 173.129C708.083 192.895 717.671 207.759 736.847 217.722C744.09 221.484 752.7 224.548 762.678 226.912C762.688 226.914 762.698 226.917 762.707 226.919C762.746 226.928 762.784 226.937 762.823 226.946C771.26 228.932 778.847 231.345 785.582 234.185C812.233 245.425 825.559 263.36 825.559 287.991C825.559 301.921 821.028 313.778 811.966 323.561C810.558 325.08 809.041 326.55 807.414 327.97C807.31 328.062 807.206 328.155 807.101 328.247C807.094 328.253 807.087 328.259 807.08 328.265C795.041 338.832 780.083 344.115 762.208 344.115C744.316 344.115 729.331 338.354 717.252 326.832C717.219 326.801 717.187 326.77 717.155 326.739C706.222 316.363 700.23 303.599 699.178 288.449C699.067 286.837 699.011 285.198 699.011 283.532H703.624C703.624 299.378 709.231 312.624 720.447 323.271C720.452 323.276 720.457 323.281 720.462 323.285C720.487 323.309 720.513 323.333 720.538 323.357C731.814 334.018 745.704 339.348 762.208 339.348C778.814 339.348 792.704 334.428 803.878 324.587C803.977 324.501 804.076 324.414 804.174 324.328C804.185 324.317 804.197 324.307 804.209 324.297C805.687 322.99 807.065 321.637 808.342 320.237ZM713.763 330.3C700.651 317.852 694.093 302.143 694.093 283.532V278.614H708.541V283.532C708.541 298.105 713.649 310.076 723.916 319.783C734.217 329.523 746.872 334.431 762.208 334.431C777.766 334.431 790.457 329.854 800.628 320.896L800.639 320.887L800.649 320.877C810.64 312.182 815.567 301.339 815.567 287.991C815.567 275.181 811.167 264.731 802.359 256.291C793.409 247.714 779.617 240.948 760.459 236.345C740.429 231.664 724.822 224.203 714.182 213.591C703.413 202.85 698.091 189.233 698.091 173.129C698.091 156.281 704.353 142.087 716.769 130.895C728.954 119.724 744.225 114.24 762.208 114.24C780.109 114.24 795.442 120.163 807.89 132.055L807.914 132.078L807.938 132.101C820.208 144.148 826.325 159.275 826.325 177.127V182.044H811.877V177.127C811.877 163.445 807.204 152.054 797.813 142.65C788.347 133.475 776.595 128.842 762.208 128.842C747.8 128.842 736.162 133.147 726.924 141.552C717.597 150.048 713 160.464 713 173.129C713 185.54 717.099 195.547 725.215 203.527C733.466 211.639 746.199 217.971 763.952 222.16C785.347 227.195 801.976 235.041 813.304 246.064C824.771 257.221 830.476 271.321 830.476 287.991C830.476 305.493 823.823 320.167 810.665 331.659C797.567 343.306 781.298 349.032 762.208 349.032C743.105 349.032 726.842 342.82 713.763 330.3ZM513.278 220.486C502.63 230.08 497.305 242.119 497.305 256.605C497.305 284.522 515.581 302.749 552.131 311.287C552.173 311.297 552.215 311.307 552.257 311.317C552.258 311.318 552.258 311.318 552.259 311.318C588.916 320.154 607.245 337.747 607.245 364.098C607.245 377.775 602.168 389.1 592.013 398.075C592.002 398.085 591.991 398.094 591.98 398.104C591.889 398.185 591.796 398.266 591.704 398.347C581.247 407.556 568.248 412.161 552.707 412.161C537.262 412.161 524.263 407.172 513.71 397.195C513.687 397.173 513.663 397.151 513.64 397.129C513.635 397.124 513.63 397.12 513.625 397.115C503.129 387.152 497.881 374.755 497.881 359.925H493.564C493.564 361.593 493.624 363.233 493.744 364.843C494.789 378.883 500.389 390.722 510.544 400.361C510.574 400.39 510.605 400.419 510.635 400.448C521.939 411.231 535.963 416.622 552.707 416.622C569.436 416.622 583.433 411.678 594.7 401.789C594.707 401.783 594.713 401.777 594.72 401.772C594.818 401.686 594.916 401.599 595.013 401.512C606.333 391.631 611.994 379.16 611.994 364.098C611.994 335.223 592.423 316.18 553.282 306.97C553.246 306.962 553.21 306.953 553.174 306.945C553.165 306.942 553.156 306.94 553.147 306.938C519.085 298.867 502.054 282.09 502.054 256.605C502.054 243.576 506.815 232.668 516.337 223.882C516.347 223.873 516.358 223.863 516.368 223.854C516.441 223.787 516.514 223.719 516.588 223.652C526.181 214.922 538.221 210.557 552.707 210.557C567.231 210.557 579.375 215.268 589.141 224.69C589.155 224.705 589.17 224.719 589.185 224.733C589.209 224.756 589.233 224.78 589.257 224.803C598.947 234.493 603.791 246.34 603.791 260.347H608.108C608.108 258.678 608.047 257.038 607.926 255.429C606.919 242.122 601.752 230.858 592.424 221.637C592.408 221.621 592.393 221.605 592.377 221.59C592.344 221.558 592.312 221.526 592.279 221.494C581.535 211.229 568.344 206.096 552.707 206.096C536.996 206.096 523.931 210.822 513.513 220.273C513.512 220.273 513.511 220.274 513.511 220.274C513.433 220.345 513.356 220.415 513.278 220.486ZM585.806 228.307C594.533 237.046 598.874 247.625 598.874 260.347V265.264H613.026V260.347C613.026 243.561 607.271 229.321 595.724 217.985L595.7 217.961L595.676 217.938C583.965 206.75 569.536 201.179 552.707 201.179C535.808 201.179 521.439 206.334 509.97 216.848C498.285 227.383 492.388 240.751 492.388 256.605C492.388 271.752 497.396 284.579 507.539 294.695C517.552 304.682 532.219 311.684 550.996 316.072C568.896 320.373 581.743 326.686 590.064 334.66C598.242 342.497 602.327 352.193 602.327 364.098C602.327 376.5 597.756 386.56 588.475 394.637L588.464 394.647L588.453 394.656C579 402.982 567.2 407.243 552.707 407.243C538.43 407.243 526.666 402.677 517.088 393.622C507.544 384.599 502.799 373.479 502.799 359.925V355.008H488.646V359.925C488.646 377.425 494.816 392.21 507.152 403.921C519.455 415.699 534.755 421.539 552.707 421.539C570.64 421.539 585.943 416.159 598.265 405.202C610.646 394.386 616.911 380.568 616.911 364.098C616.911 348.418 611.541 335.14 600.745 324.635C590.088 314.265 574.465 306.903 554.412 302.184C537.829 298.271 525.974 292.364 518.309 284.829C510.777 277.424 506.972 268.142 506.972 256.605C506.972 244.843 511.236 235.18 519.898 227.289C528.478 219.481 539.291 215.475 552.707 215.475C566.094 215.475 577.011 219.783 585.806 228.307Z" fill="black"/>
<path fill-rule="evenodd" clip-rule="evenodd" d="M46.7726 47.1165C76.4295 17.4625 116.639 0.783609 158.578 0.73938C200.514 0.787629 240.719 17.4682 270.373 47.1219C300.027 76.7755 316.707 116.981 316.755 158.917V340.247C316.755 340.333 316.732 341.298 316.708 342.241C316.686 343.139 316.664 344.017 316.664 344.091C314.629 429.196 243.652 498.425 158.578 498.425C116.639 498.381 76.4295 481.702 46.7726 452.048C17.1157 422.394 0.433022 382.187 0.384766 340.247V158.917C0.433022 116.978 17.1157 76.7706 46.7726 47.1165ZM181.669 184.561V158.993C181.669 155.955 181.071 152.946 179.908 150.139C178.745 147.332 177.041 144.781 174.893 142.633C172.744 140.484 170.193 138.78 167.386 137.617C164.579 136.454 161.571 135.856 158.532 135.856C155.494 135.856 152.485 136.454 149.678 137.617C146.871 138.78 144.32 140.484 142.172 142.633C140.023 144.781 138.319 147.332 137.156 150.139C135.993 152.946 135.395 155.955 135.395 158.993C135.364 164.377 137.231 169.6 140.668 173.745C144.104 177.89 148.891 180.692 154.187 181.659C154.85 181.832 158.125 182.142 163.532 182.653L164.427 182.738C164.798 182.773 165.174 182.809 165.555 182.845C171.268 183.385 177.909 184.012 180.758 184.44L181.669 184.561ZM195.783 158.917V186.536L196.497 186.658C201.771 187.953 206.963 189.517 212.054 191.339V158.918C212.054 148.36 208.924 138.038 203.06 129.258C197.195 120.479 188.86 113.634 179.107 109.59C169.354 105.546 158.621 104.485 148.265 106.539C137.908 108.593 128.393 113.671 120.922 121.132C113.451 128.592 108.359 138.1 106.29 148.453C104.221 158.807 105.268 169.541 109.298 179.3C113.328 189.059 120.161 197.404 128.932 203.281C137.704 209.158 148.02 212.302 158.578 212.317C183.883 212.323 208.618 219.833 229.655 233.896C250.692 247.959 267.086 267.944 276.765 291.325C286.444 314.705 288.972 340.431 284.031 365.248C279.089 390.066 266.9 412.861 249.003 430.751C231.107 448.641 208.308 460.822 183.489 465.755C158.669 470.687 132.945 468.15 109.568 458.463C86.1907 448.775 66.2112 432.374 52.1555 411.332C38.0998 390.29 30.5992 365.553 30.6022 340.248V158.918C30.6022 124.984 44.0822 92.4407 68.0767 68.4462C92.0712 44.4517 124.615 30.9717 158.548 30.9717C192.481 30.9717 225.025 44.4517 249.019 68.4462C273.014 92.4407 286.494 124.984 286.494 158.918V247.131C292.1 254.847 297.011 263.079 301.153 271.732L302.673 274.892V158.917C302.868 139.875 299.286 120.983 292.135 103.333C284.983 85.6841 274.403 69.6278 261.006 56.0932C247.61 42.5586 231.663 31.8142 214.088 24.4815C196.513 17.1488 177.659 13.3733 158.616 13.3733C139.572 13.3733 120.718 17.1488 103.143 24.4815C85.5681 31.8142 69.6213 42.5586 56.225 56.0932C42.8287 69.6278 32.2486 85.6841 25.0968 103.333C17.9449 120.983 14.3632 139.875 14.5588 158.917V340.247C14.615 378.425 29.807 415.023 56.804 442.017C83.801 469.011 120.4 484.199 158.578 484.251C235.965 484.251 300.576 421.327 302.581 343.985V340.202C302.532 308.681 292.164 278.044 273.063 252.97C253.961 227.896 227.176 209.766 196.8 201.348H196.542C185.457 198.235 174.024 196.535 162.512 196.289C161.16 196.183 159.823 196.183 158.532 196.183C151.161 196.186 143.955 194.003 137.824 189.91C131.694 185.817 126.915 179.998 124.092 173.189C121.269 166.38 120.529 158.886 121.965 151.656C123.402 144.427 126.95 137.785 132.161 132.572C137.372 127.359 144.012 123.808 151.241 122.369C158.47 120.93 165.964 121.667 172.774 124.487C179.585 127.307 185.406 132.083 189.501 138.212C193.597 144.341 195.783 151.546 195.783 158.917ZM272.457 230.385V158.918C272.457 143.969 269.512 129.167 263.792 115.356C258.071 101.545 249.686 88.9961 239.116 78.4258C228.546 67.8554 215.997 59.4706 202.186 53.7499C188.375 48.0293 173.573 45.0849 158.624 45.0849C143.675 45.0849 128.873 48.0293 115.062 53.7499C101.251 59.4706 88.7025 67.8554 78.1322 78.4258C67.5619 88.9961 59.177 101.545 53.4564 115.356C47.7358 129.167 44.7914 143.969 44.7914 158.918V340.248C44.7854 362.762 51.4557 384.772 63.9588 403.495C76.4619 422.218 94.2362 436.813 115.034 445.434C135.832 454.056 158.719 456.316 180.802 451.93C202.884 447.543 223.17 436.707 239.094 420.792C255.018 404.876 265.865 384.596 270.263 362.516C274.662 340.436 272.413 317.547 263.803 296.744C255.193 275.942 240.608 258.16 221.891 245.647C203.175 233.134 181.168 226.452 158.654 226.446C145.298 226.449 132.241 222.491 121.134 215.072C110.027 207.654 101.369 197.109 96.256 184.77C91.1426 172.431 89.8032 158.853 92.4071 145.753C95.0109 132.653 101.441 120.619 110.884 111.174C120.328 101.728 132.36 95.2952 145.46 92.6884C158.559 90.0816 172.138 91.418 184.477 96.5286C196.817 101.639 207.365 110.294 214.785 121.4C222.206 132.505 226.167 145.561 226.167 158.918V197.178C231.649 199.764 236.981 202.665 242.134 205.867V158.966C242.134 142.44 237.234 126.286 228.052 112.545C218.871 98.8047 205.822 88.0952 190.554 81.7711C175.286 75.447 158.486 73.7923 142.278 77.0163C126.07 80.2403 111.182 88.1982 99.4963 99.8836C87.8109 111.569 79.8531 126.457 76.6291 142.665C73.4051 158.873 75.0597 175.674 81.3838 190.941C87.7079 206.209 98.4174 219.259 112.158 228.44C125.899 237.621 142.053 242.521 158.579 242.521C177.908 242.521 196.803 248.253 212.874 258.992C228.946 269.73 241.472 284.994 248.869 302.851C256.266 320.709 258.201 340.359 254.43 359.317C250.659 378.274 241.352 395.688 227.684 409.356C214.016 423.024 196.602 432.331 177.645 436.102C158.687 439.873 139.037 437.938 121.179 430.541C103.322 423.144 88.0585 410.618 77.3199 394.546C66.5813 378.475 60.8496 359.58 60.8496 340.251V158.921C61.1701 133.214 71.6068 108.669 89.8983 90.6045C108.19 72.5396 132.863 62.4097 158.571 62.4097C184.28 62.4097 208.953 72.5396 227.244 90.6045C245.536 108.669 255.972 133.214 256.293 158.921V215.781C256.992 216.329 257.686 216.884 258.376 217.445C263.339 221.479 268.04 225.802 272.457 230.385ZM161.78 303.617C147.88 302.265 138.841 301.095 129.559 299.439L121.309 297.92V340.169C121.528 349.804 125.472 358.979 132.313 365.767C139.154 372.555 148.359 376.428 157.995 376.571C167.632 376.715 176.949 373.118 183.989 366.537C191.029 359.956 195.244 350.902 195.749 341.278V339.546C195.491 330.43 191.885 321.728 185.619 315.101C179.354 308.474 170.868 304.386 161.78 303.617ZM181.667 340.199V340.807C181.592 346.943 179.083 352.799 174.691 357.085C170.299 361.371 164.385 363.737 158.248 363.663C152.112 363.588 146.257 361.079 141.97 356.687C137.684 352.296 135.318 346.381 135.392 340.245V314.738L136.289 314.859C143.079 315.816 149.505 316.576 156.463 317.259C157.739 317.426 159.016 317.533 160.231 317.624H160.732C166.375 318.186 171.617 320.791 175.473 324.949C179.329 329.106 181.531 334.53 181.667 340.199ZM205 270.732C191.259 261.55 175.105 256.65 158.579 256.65C142.231 256.663 126.143 252.553 111.804 244.701C97.4652 236.849 85.3375 225.508 76.5428 211.728L75.0236 209.434V340.205C75.0236 356.731 79.924 372.885 89.1052 386.626C98.2863 400.367 111.336 411.076 126.604 417.4C141.871 423.724 158.672 425.379 174.88 422.155C191.088 418.931 205.976 410.973 217.661 399.288C229.347 387.602 237.305 372.714 240.529 356.506C243.753 340.298 242.098 323.498 235.774 308.23C229.45 292.962 218.74 279.913 205 270.732ZM158.58 272.778C137.691 272.778 120.858 268.965 105.591 260.746L92.8447 253.727L91.052 252.74V340.245C91.04 353.604 94.9902 366.665 102.403 377.778C109.816 388.891 120.358 397.556 132.696 402.676C145.034 407.796 158.614 409.142 171.717 406.544C184.82 403.945 196.858 397.518 206.308 388.077C215.758 378.635 222.195 366.603 224.806 353.502C227.416 340.402 226.083 326.821 220.973 314.478C215.864 302.136 207.209 291.586 196.103 284.163C184.996 276.74 171.938 272.778 158.58 272.778ZM212.055 340.245C212.055 354.408 206.429 367.99 196.415 378.004C186.401 388.019 172.818 393.645 158.656 393.645C144.493 393.645 130.911 388.019 120.897 378.004C110.882 367.99 105.256 354.408 105.256 340.245V276.318L106.365 276.804C121.74 283.564 138.83 286.846 158.656 286.846C172.813 286.862 186.386 292.493 196.397 302.504C206.408 312.515 212.039 326.088 212.055 340.245Z" fill="black"/>
</svg>
