<svg width="317" height="499" viewBox="0 0 317 499" fill="none" xmlns="http://www.w3.org/2000/svg">
<path fill-rule="evenodd" clip-rule="evenodd" d="M46.6867 47.0482C76.3436 17.3941 116.553 0.715249 158.492 0.671021C200.428 0.71927 240.633 17.3999 270.287 47.0535C299.941 76.7072 316.621 116.912 316.67 158.849V340.179C316.67 340.265 316.646 341.23 316.622 342.172C316.6 343.071 316.578 343.949 316.578 344.023C314.543 429.128 243.566 498.357 158.492 498.357C116.553 498.313 76.3436 481.634 46.6867 451.98C17.0298 422.326 0.347085 382.118 0.298828 340.179V158.849C0.347085 116.91 17.0298 76.7023 46.6867 47.0482ZM181.583 184.493V158.925C181.583 155.886 180.985 152.878 179.822 150.071C178.659 147.263 176.955 144.713 174.807 142.564C172.658 140.416 170.108 138.712 167.3 137.549C164.493 136.386 161.485 135.788 158.446 135.788C155.408 135.788 152.399 136.386 149.592 137.549C146.785 138.712 144.234 140.416 142.086 142.564C139.937 144.713 138.233 147.263 137.07 150.071C135.907 152.878 135.309 155.886 135.309 158.925C135.278 164.309 137.145 169.532 140.582 173.677C144.018 177.822 148.805 180.624 154.101 181.591C154.764 181.764 158.039 182.074 163.446 182.585L164.341 182.67C164.712 182.705 165.088 182.74 165.469 182.776C171.182 183.316 177.823 183.944 180.672 184.371L181.583 184.493ZM195.697 158.849V186.468L196.411 186.589C201.685 187.884 206.877 189.448 211.968 191.271V158.849C211.968 148.291 208.838 137.97 202.974 129.19C197.109 120.41 188.774 113.566 179.021 109.522C169.268 105.478 158.535 104.416 148.179 106.471C137.822 108.525 128.307 113.603 120.836 121.064C113.365 128.524 108.273 138.032 106.204 148.385C104.135 158.739 105.182 169.473 109.212 179.232C113.242 188.991 120.075 197.336 128.846 203.213C137.618 209.089 147.934 212.234 158.493 212.249C183.797 212.255 208.532 219.764 229.569 233.827C250.606 247.891 267 267.876 276.679 291.257C286.358 314.637 288.886 340.363 283.945 365.18C279.003 389.998 266.814 412.793 248.917 430.682C231.021 448.572 208.222 460.754 183.403 465.687C158.583 470.619 132.859 468.081 109.482 458.394C86.1048 448.707 66.1252 432.306 52.0695 411.264C38.0138 390.222 30.5132 365.484 30.5162 340.18V158.849C30.5163 124.916 43.9962 92.3725 67.9907 68.3779C91.9852 44.3834 124.529 30.9034 158.462 30.9034C192.395 30.9034 224.939 44.3834 248.934 68.3779C272.928 92.3725 286.408 124.916 286.408 158.849V247.063C292.014 254.779 296.925 263.01 301.067 271.664L302.587 274.824V158.849C302.782 139.807 299.201 120.914 292.049 103.265C284.897 85.6157 274.317 69.5595 260.92 56.0248C247.524 42.4902 231.577 31.7458 214.002 24.4131C196.427 17.0804 177.573 13.3049 158.53 13.3049C139.486 13.3049 120.632 17.0804 103.057 24.4131C85.4822 31.7458 69.5354 42.4902 56.1391 56.0248C42.7427 69.5595 32.1627 85.6157 25.0108 103.265C17.859 120.914 14.2773 139.807 14.4728 158.849V340.179C14.5291 378.357 29.721 414.954 56.7181 441.948C83.7151 468.943 120.314 484.131 158.492 484.183C235.879 484.183 300.49 421.258 302.495 343.916V340.134C302.446 308.613 292.078 277.975 272.977 252.902C253.875 227.828 227.09 209.697 196.715 201.28H196.456C185.371 198.166 173.938 196.467 162.426 196.221C161.074 196.115 159.738 196.115 158.446 196.115C151.075 196.118 143.869 193.935 137.738 189.842C131.608 185.749 126.829 179.93 124.006 173.12C121.184 166.311 120.443 158.818 121.88 151.588C123.316 144.358 126.864 137.717 132.075 132.503C137.286 127.29 143.926 123.739 151.155 122.3C158.384 120.861 165.878 121.598 172.688 124.418C179.499 127.239 185.32 132.015 189.415 138.144C193.511 144.272 195.697 151.478 195.697 158.849ZM272.371 230.316V158.849C272.371 143.901 269.426 129.098 263.706 115.288C257.985 101.477 249.6 88.9279 239.03 78.3575C228.46 67.7872 215.911 59.4023 202.1 53.6817C188.289 47.961 173.487 45.0167 158.538 45.0167C143.589 45.0167 128.787 47.961 114.976 53.6817C101.165 59.4023 88.6166 67.7872 78.0463 78.3575C67.4759 88.9279 59.0911 101.477 53.3704 115.288C47.6498 129.098 44.7055 143.901 44.7055 158.849V340.18C44.6994 362.694 51.3697 384.704 63.8728 403.427C76.3759 422.15 94.1503 436.745 114.948 445.366C135.746 453.987 158.633 456.248 180.716 451.862C202.798 447.475 223.084 436.639 239.008 420.723C254.932 404.808 265.779 384.528 270.178 362.448C274.576 340.367 272.328 317.479 263.717 296.676C255.107 275.874 240.522 258.092 221.805 245.578C203.089 233.065 181.082 226.383 158.568 226.377C145.212 226.38 132.155 222.422 121.048 215.004C109.941 207.586 101.283 197.041 96.1701 184.702C91.0567 172.363 89.7173 158.785 92.3211 145.685C94.925 132.585 101.355 120.551 110.799 111.105C120.242 101.66 132.274 95.227 145.374 92.6202C158.473 90.0134 172.052 91.3497 184.392 96.4603C196.732 101.571 207.279 110.226 214.7 121.331C222.12 132.437 226.081 145.493 226.081 158.849V197.11C231.563 199.696 236.895 202.596 242.048 205.799V158.898C242.048 142.372 237.148 126.218 227.967 112.477C218.785 98.7364 205.736 88.0269 190.468 81.7028C175.2 75.3787 158.4 73.7241 142.192 76.9481C125.984 80.1721 111.096 88.1299 99.4104 99.8153C87.725 111.501 79.7671 126.389 76.5431 142.597C73.3191 158.805 74.9738 175.605 81.2979 190.873C87.622 206.141 98.3315 219.19 112.072 228.372C125.813 237.553 141.967 242.453 158.493 242.453C177.822 242.453 196.717 248.185 212.788 258.924C228.86 269.662 241.386 284.925 248.783 302.783C256.18 320.641 258.115 340.291 254.344 359.249C250.573 378.206 241.266 395.62 227.598 409.288C213.93 422.955 196.517 432.263 177.559 436.034C158.601 439.805 138.951 437.87 121.094 430.473C103.236 423.076 87.9726 410.55 77.234 394.478C66.4953 378.407 60.7636 359.512 60.7636 340.183V158.852C61.0841 133.146 71.5209 108.601 89.8124 90.5362C108.104 72.4713 132.777 62.3414 158.485 62.3414C184.194 62.3414 208.867 72.4713 227.158 90.5362C245.45 108.601 255.886 133.146 256.207 158.852V215.712C256.906 216.261 257.6 216.816 258.29 217.377C263.253 221.411 267.954 225.733 272.371 230.316ZM161.695 303.549C147.794 302.197 138.755 301.027 129.473 299.371L121.223 297.852V340.1C121.442 349.735 125.386 358.911 132.227 365.699C139.068 372.487 148.273 376.36 157.909 376.503C167.546 376.647 176.863 373.05 183.903 366.469C190.943 359.887 195.158 350.834 195.664 341.209V339.478C195.405 330.361 191.799 321.66 185.533 315.033C179.268 308.406 170.782 304.318 161.695 303.549ZM181.581 340.131V340.739C181.506 346.875 178.997 352.73 174.605 357.017C170.213 361.303 164.299 363.669 158.162 363.595C152.026 363.52 146.171 361.011 141.884 356.619C137.598 352.227 135.232 346.313 135.306 340.176V314.669L136.203 314.791C142.993 315.748 149.42 316.507 156.377 317.191C157.654 317.358 158.93 317.465 160.145 317.556H160.646C166.289 318.117 171.531 320.722 175.387 324.88C179.243 329.038 181.446 334.462 181.581 340.131ZM204.914 270.663C191.173 261.482 175.019 256.582 158.493 256.582C142.145 256.594 126.057 252.485 111.718 244.633C97.3793 236.781 85.2516 225.44 76.4568 211.659L74.9376 209.365V340.137C74.9376 356.663 79.8381 372.817 89.0192 386.558C98.2004 400.298 111.25 411.008 126.518 417.332C141.785 423.656 158.586 425.311 174.794 422.087C191.002 418.863 205.89 410.905 217.575 399.22C229.261 387.534 237.219 372.646 240.443 356.438C243.667 340.23 242.012 323.429 235.688 308.162C229.364 292.894 218.654 279.844 204.914 270.663ZM158.494 272.71C137.605 272.71 120.773 268.897 105.505 260.678L92.7587 253.659L90.9661 252.672V340.177C90.9541 353.535 94.9043 366.597 102.317 377.71C109.73 388.823 120.272 397.488 132.61 402.608C144.948 407.728 158.528 409.074 171.631 406.475C184.734 403.877 196.772 397.45 206.222 388.009C215.672 378.567 222.109 366.535 224.72 353.434C227.33 340.333 225.997 326.753 220.887 314.41C215.778 302.067 207.123 291.517 196.017 284.095C184.911 276.672 171.852 272.71 158.494 272.71ZM211.969 340.177C211.969 354.339 206.343 367.922 196.329 377.936C186.315 387.95 172.732 393.576 158.57 393.576C144.408 393.576 130.825 387.95 120.811 377.936C110.796 367.922 105.17 354.339 105.17 340.177V276.25L106.28 276.736C121.654 283.496 138.745 286.777 158.57 286.777C172.727 286.794 186.3 292.425 196.311 302.436C206.322 312.446 211.953 326.019 211.969 340.177Z" fill="white"/>
</svg>
