<svg width="488" height="308" viewBox="0 0 488 308" fill="none" xmlns="http://www.w3.org/2000/svg">
<path d="M69.525 91.3703C87.7032 91.3703 103.111 97.5917 115.748 110.035C128.191 122.477 134.413 137.837 134.413 156.112C134.413 174.485 128.191 189.893 115.748 202.335C103.305 214.778 87.9462 221 69.6708 221C51.2981 221 35.8904 214.778 23.4475 202.335C11.0046 189.893 4.7832 174.485 4.7832 156.112C4.7832 141.628 8.96323 128.602 17.3233 117.034L94.8967 11.318H100.584L33.3629 102.452C44.056 95.0643 56.11 91.3703 69.525 91.3703ZM26.8012 199.127C38.1748 210.695 52.416 216.479 69.525 216.479C86.5367 216.479 100.827 210.695 112.395 199.127C123.865 187.657 129.601 173.318 129.601 156.112C129.601 138.906 123.865 124.567 112.395 113.097C100.827 101.529 86.5367 95.7448 69.525 95.7448C52.416 95.7448 38.1748 101.529 26.8012 113.097C15.3305 124.567 9.59509 138.906 9.59509 156.112C9.59509 173.318 15.3305 187.657 26.8012 199.127Z" fill="black"/>
<path fill-rule="evenodd" clip-rule="evenodd" d="M119.034 106.724L119.047 106.737C132.401 120.091 139.077 136.653 139.077 156.112C139.077 175.661 132.406 192.273 119.047 205.633C105.693 218.987 89.131 225.663 69.672 225.663C50.1233 225.663 33.5107 218.992 20.1512 205.633C6.79178 192.273 0.121094 175.661 0.121094 156.112C0.121094 140.663 4.60126 126.678 13.5449 114.302L13.5548 114.288L92.5357 6.65466H109.819L48.4344 89.8766C55.0939 87.7628 62.1309 86.707 69.5262 86.707C88.8945 86.707 105.488 93.3861 119.021 106.712L119.034 106.724ZM17.3245 117.034C12.6721 123.471 9.31423 130.36 7.25091 137.701C5.60657 143.551 4.7844 149.688 4.7844 156.112C4.7844 171.659 9.2395 185.084 18.1497 196.385C19.7689 198.438 21.5352 200.422 23.4487 202.335C23.4637 202.35 23.4788 202.365 23.4938 202.38C23.5031 202.39 23.5124 202.399 23.5217 202.408C35.9188 214.77 51.2536 220.967 69.5262 220.999C69.5747 221 69.6233 221 69.672 221C87.9117 221 103.247 214.802 115.676 202.408C115.701 202.384 115.725 202.36 115.749 202.335C117.662 200.422 119.428 198.439 121.047 196.386C129.958 185.085 134.414 171.66 134.414 156.112C134.414 144.763 132.014 134.539 127.216 125.439C124.287 119.885 120.465 114.75 115.749 110.035C115.7 109.986 115.651 109.938 115.602 109.89C102.993 97.5435 87.6339 91.3703 69.5262 91.3703C60.1195 91.3703 51.382 93.1866 43.3136 96.8192C40.1921 98.2246 37.1708 99.9018 34.2496 101.851C33.9534 102.049 33.6582 102.249 33.3641 102.452L100.585 11.318H94.8979L17.3245 117.034ZM22.5035 117.858C22.0042 118.473 21.5193 119.096 21.049 119.725C21.0423 119.734 21.0357 119.743 21.029 119.752C16.708 125.543 13.6118 131.946 11.7405 138.962C10.311 144.321 9.59629 150.038 9.59629 156.112C9.59629 170.621 13.6747 183.092 21.8316 193.523C23.3272 195.435 24.9598 197.279 26.7296 199.054C26.7538 199.079 26.7781 199.103 26.8024 199.127C38.176 210.695 52.4172 216.479 69.5262 216.479C69.5748 216.479 69.6234 216.479 69.672 216.479C86.6195 216.446 100.861 210.662 112.396 199.127C112.42 199.103 112.444 199.079 112.469 199.054C114.238 197.279 115.871 195.435 117.367 193.523C125.523 183.092 129.602 170.621 129.602 156.112C129.602 145.516 127.427 136.007 123.076 127.586C120.398 122.401 116.894 117.628 112.566 113.268C112.558 113.259 112.55 113.251 112.541 113.243C112.493 113.194 112.444 113.145 112.396 113.097C100.828 101.529 86.5379 95.7447 69.5262 95.7447C57.5674 95.7447 47.0097 98.5706 37.853 104.222C37.4762 104.455 37.1017 104.692 36.7296 104.935C36.3508 105.181 35.9744 105.433 35.6005 105.689C35.5671 105.712 35.5336 105.735 35.5002 105.758C32.4353 107.87 29.536 110.316 26.8024 113.097C25.2666 114.632 23.8337 116.22 22.5035 117.858ZM30.1139 195.844L30.1277 195.858C40.5726 206.481 53.5916 211.816 69.5262 211.816C85.3561 211.816 98.443 206.485 109.098 195.83C119.637 185.291 124.939 172.165 124.939 156.112C124.939 140.059 119.637 126.933 109.098 116.394C98.443 105.739 85.3561 100.408 69.5262 100.408C53.5916 100.408 40.5726 105.743 30.1277 116.366L30.1139 116.38L30.0999 116.394C19.5608 126.933 14.2596 140.059 14.2596 156.112C14.2596 172.165 19.5608 185.291 30.0999 195.83L30.1139 195.844Z" fill="black"/>
<path fill-rule="evenodd" clip-rule="evenodd" d="M343.942 58.9852C337.572 55.1585 330.565 53.2451 322.921 53.2451C317.542 53.2451 312.446 54.3081 307.633 56.4341C302.961 58.4183 298.856 61.3946 295.318 65.3631V56.0089H280.879V150.892H295.318V95.3392C295.318 90.3786 296.521 85.8432 298.927 81.733C301.475 77.4811 304.872 74.1504 309.119 71.741C313.366 69.1899 317.966 67.9143 322.921 67.9143C327.875 67.9143 332.476 69.1899 336.722 71.741C340.969 74.1504 344.295 77.4811 346.702 81.733C349.25 85.8432 350.524 90.3786 350.524 95.3392V150.892H365.175V95.3392C365.175 87.6858 363.264 80.6701 359.442 74.2922C355.62 67.7725 350.453 62.6702 343.942 58.9852Z" fill="black"/>
<path fill-rule="evenodd" clip-rule="evenodd" d="M418.765 229.996C436.806 229.996 451.875 224.615 463.972 213.851C476.068 203.293 482.116 189.966 482.116 173.872C482.116 143.017 461.204 122.669 419.38 112.828C382.886 104.217 364.64 86.278 364.64 59.0105C364.64 44.9667 369.816 33.2293 380.17 23.7984C390.421 14.4701 403.286 9.80588 418.765 9.80588C434.346 9.80588 447.365 14.8801 457.821 25.0286C468.174 35.382 473.351 48.042 473.351 63.0084H477.964C477.964 46.4018 472.326 32.563 461.05 21.492C449.569 10.5234 435.474 5.03918 418.765 5.03918C401.851 5.03918 387.807 10.1647 376.633 20.4156C365.255 30.6666 359.566 43.5315 359.566 59.0105C359.566 88.8408 379.094 108.318 418.15 117.441C457.411 126.872 477.041 145.682 477.041 173.872C477.041 188.634 471.506 200.832 460.435 210.468C449.261 220.309 435.371 225.23 418.765 225.23C402.261 225.23 388.371 219.899 377.095 209.238C365.819 198.577 360.181 185.302 360.181 169.413H355.568C355.568 186.737 361.616 201.14 373.712 212.621C385.808 224.205 400.826 229.996 418.765 229.996ZM209.264 302.503C226.148 302.503 240.25 297.467 251.57 287.394C262.891 277.513 268.551 265.042 268.551 249.98C268.551 221.104 248.98 202.061 209.839 192.852C175.687 184.793 158.611 168.005 158.611 142.487C158.611 129.344 163.456 118.36 173.145 109.534C182.738 100.804 194.778 96.439 209.264 96.439C223.846 96.439 236.029 101.188 245.814 110.685C255.504 120.374 260.348 132.222 260.348 146.228H264.665C264.665 130.687 259.389 117.736 248.836 107.375C238.092 97.1105 224.901 91.9781 209.264 91.9781C193.435 91.9781 180.292 96.7747 169.835 106.368C159.187 115.961 153.862 128.001 153.862 142.487C153.862 170.403 172.138 188.631 208.688 197.169C245.431 205.995 263.802 223.598 263.802 249.98C263.802 263.794 258.622 275.21 248.261 284.228C237.804 293.438 224.805 298.043 209.264 298.043C193.819 298.043 180.82 293.054 170.267 283.077C159.714 273.1 154.438 260.677 154.438 245.807H150.121C150.121 262.02 155.781 275.498 167.101 286.243C178.421 297.083 192.476 302.503 209.264 302.503Z" fill="black"/>
<path fill-rule="evenodd" clip-rule="evenodd" d="M464.9 206.118C472.995 197.244 477.043 186.495 477.043 173.873C477.043 151.579 464.765 135.151 440.21 124.59C433.752 121.812 426.445 119.44 418.288 117.474C418.287 117.474 418.286 117.474 418.285 117.474C418.241 117.463 418.196 117.452 418.151 117.441C407.773 115.017 398.774 111.862 391.153 107.975C370.096 97.2358 359.567 80.9144 359.567 59.0108C359.567 44.596 364.501 32.4482 374.369 22.5672C375.097 21.8378 375.853 21.1207 376.635 20.4159C376.718 20.34 376.8 20.2644 376.883 20.1891C376.884 20.1886 376.885 20.1881 376.885 20.1875C388.018 10.0888 401.978 5.03949 418.766 5.03949C435.475 5.03949 449.57 10.5238 461.052 21.4923C461.086 21.5264 461.121 21.5605 461.156 21.5947C461.173 21.6114 461.19 21.6282 461.206 21.6449C471.252 31.5765 476.782 43.7252 477.795 58.0911C477.909 59.7024 477.966 61.3416 477.966 63.0087H473.353C473.353 48.0423 468.176 35.3823 457.822 25.0289C457.797 25.0037 457.771 24.9786 457.745 24.9536C457.729 24.9384 457.713 24.9233 457.698 24.9082C447.263 14.8402 434.286 9.80619 418.766 9.80619C403.287 9.80619 390.422 14.4704 380.171 23.7987C380.093 23.8705 380.014 23.9423 379.936 24.0143C379.925 24.0243 379.914 24.0343 379.904 24.0443C379.2 24.6932 378.521 25.353 377.867 26.0236C369.05 35.0552 364.641 46.0509 364.641 59.0108C364.641 78.7768 374.229 93.6411 393.406 103.604C400.648 107.366 409.259 110.43 419.237 112.794C419.247 112.796 419.256 112.799 419.266 112.801C419.304 112.81 419.343 112.819 419.381 112.828C427.819 114.814 435.406 117.227 442.141 120.067C468.792 131.307 482.117 149.242 482.117 173.873C482.117 187.803 477.586 199.659 468.524 209.443C467.116 210.962 465.599 212.432 463.973 213.852C463.869 213.944 463.764 214.037 463.66 214.128C463.653 214.135 463.645 214.141 463.638 214.147C451.599 224.714 436.642 229.997 418.766 229.997C400.875 229.997 385.89 224.236 373.81 212.714C373.778 212.683 373.746 212.652 373.713 212.621C362.781 202.245 356.789 189.481 355.737 174.331C355.625 172.719 355.569 171.08 355.569 169.414H360.182C360.182 185.26 365.79 198.506 377.006 209.153C377.011 209.158 377.016 209.163 377.021 209.167C377.046 209.191 377.071 209.215 377.096 209.239C388.372 219.9 402.262 225.23 418.766 225.23C435.373 225.23 449.263 220.31 460.436 210.469C460.536 210.382 460.634 210.296 460.732 210.209C460.744 210.199 460.756 210.189 460.767 210.179C462.246 208.872 463.623 207.519 464.9 206.118ZM370.321 216.182C357.21 203.734 350.652 188.024 350.652 169.414V164.496H365.1V169.414C365.1 183.987 370.207 195.958 380.475 205.665C390.776 215.405 403.431 220.313 418.766 220.313C434.324 220.313 447.016 215.736 457.186 206.778L457.197 206.769L457.208 206.759C467.199 198.064 472.125 187.221 472.125 173.873C472.125 161.063 467.726 150.613 458.918 142.173C449.967 133.596 436.176 126.83 417.018 122.226C396.988 117.546 381.38 110.085 370.74 99.4729C359.971 88.732 354.65 75.1147 354.65 59.0108C354.65 42.1627 360.912 27.9691 373.328 16.7765C385.513 5.60571 400.783 0.121948 418.766 0.121948C436.668 0.121948 452.001 6.04475 464.448 17.9366L464.473 17.9598L464.497 17.9833C476.767 30.0302 482.883 45.1572 482.883 63.0087V67.9262H468.435V63.0087C468.435 49.3269 463.763 37.9359 454.371 28.5324C444.905 19.3571 433.154 14.7237 418.766 14.7237C404.358 14.7237 392.72 19.029 383.483 27.4342C374.156 35.9302 369.559 46.3464 369.559 59.0108C369.559 71.422 373.657 81.4294 381.774 89.4092C390.024 97.5206 402.757 103.853 420.511 108.042C441.905 113.077 458.535 120.923 469.863 131.946C481.329 143.103 487.035 157.203 487.035 173.873C487.035 191.375 480.382 206.049 467.224 217.541C454.126 229.188 437.856 234.914 418.766 234.914C399.663 234.914 383.401 228.702 370.321 216.182ZM169.837 106.368C159.188 115.962 153.864 128.001 153.864 142.487C153.864 170.404 172.139 188.631 208.69 197.169C208.732 197.179 208.773 197.189 208.815 197.199C208.816 197.2 208.817 197.2 208.818 197.2C245.475 206.036 263.803 223.629 263.803 249.98C263.803 263.657 258.726 274.982 248.572 283.957C248.561 283.967 248.55 283.976 248.539 283.986C248.447 284.067 248.355 284.148 248.262 284.229C237.806 293.438 224.807 298.043 209.265 298.043C193.82 298.043 180.821 293.054 170.269 283.077C170.245 283.055 170.222 283.033 170.198 283.011C170.193 283.006 170.189 283.002 170.184 282.997C159.688 273.034 154.44 260.637 154.44 245.807H150.123C150.123 247.475 150.183 249.115 150.302 250.725C151.347 264.765 156.947 276.604 167.103 286.243C167.133 286.272 167.163 286.301 167.194 286.33C178.498 297.112 192.522 302.504 209.265 302.504C225.994 302.504 239.992 297.56 251.259 287.671C251.265 287.665 251.272 287.659 251.279 287.654C251.377 287.567 251.474 287.481 251.572 287.394C262.892 277.513 268.552 265.042 268.552 249.98C268.552 221.104 248.982 202.062 209.841 192.852C209.805 192.844 209.769 192.835 209.733 192.827C209.724 192.824 209.715 192.822 209.706 192.82C175.644 184.749 158.613 167.972 158.613 142.487C158.613 129.458 163.374 118.55 172.896 109.764C172.906 109.755 172.916 109.745 172.926 109.736C172.999 109.669 173.073 109.601 173.147 109.534C182.74 100.804 194.78 96.4393 209.265 96.4393C223.789 96.4393 235.934 101.15 245.699 110.572C245.714 110.587 245.729 110.601 245.743 110.615C245.767 110.638 245.792 110.662 245.816 110.685C255.505 120.375 260.35 132.222 260.35 146.229H264.667C264.667 144.56 264.606 142.92 264.484 141.311C263.478 128.004 258.311 116.74 248.983 107.519C248.967 107.503 248.951 107.487 248.935 107.472C248.903 107.44 248.87 107.408 248.838 107.376C238.093 97.1108 224.903 91.9784 209.265 91.9784C193.554 91.9784 180.49 96.7038 170.071 106.155C170.071 106.155 170.07 106.156 170.07 106.156C169.992 106.227 169.914 106.297 169.837 106.368ZM242.365 114.188C251.092 122.928 255.432 133.507 255.432 146.229V151.146H269.584V146.229C269.584 129.443 263.83 115.203 252.283 103.867L252.259 103.843L252.235 103.82C240.524 92.6318 226.095 87.0609 209.265 87.0609C192.367 87.0609 177.997 92.216 166.529 102.73C154.844 113.265 148.946 126.633 148.946 142.487C148.946 157.634 153.955 170.461 164.098 180.577C174.111 190.564 188.778 197.566 207.555 201.954C225.454 206.255 238.302 212.568 246.623 220.542C254.801 228.379 258.886 238.075 258.886 249.98C258.886 262.382 254.314 272.442 245.034 280.519L245.023 280.529L245.012 280.538C235.559 288.864 223.758 293.125 209.265 293.125C194.989 293.125 183.225 288.559 173.647 279.504C164.103 270.481 159.357 259.361 159.357 245.807V240.89H145.205V245.807C145.205 263.307 151.375 278.092 163.711 289.803C176.014 301.581 191.313 307.421 209.265 307.421C227.198 307.421 242.501 302.041 254.824 291.084C267.205 280.268 273.47 266.45 273.47 249.98C273.47 234.3 268.1 221.022 257.304 210.517C246.647 200.147 231.023 192.785 210.97 188.066C194.387 184.153 182.532 178.246 174.867 170.71C167.336 163.306 163.53 154.024 163.53 142.487C163.53 130.725 167.794 121.062 176.456 113.171C185.036 105.363 195.849 101.357 209.265 101.357C222.653 101.357 233.569 105.665 242.365 114.188Z" fill="black"/>
</svg>
