<svg width="831" height="499" viewBox="0 0 831 499" fill="none" xmlns="http://www.w3.org/2000/svg">
<path d="M412.584 205.488C430.762 205.488 446.17 211.71 458.807 224.153C471.25 236.596 477.471 251.955 477.471 270.23C477.471 288.603 471.25 304.011 458.807 316.453C446.364 328.896 431.005 335.118 412.729 335.118C394.357 335.118 378.949 328.896 366.506 316.453C354.063 304.011 347.842 288.603 347.842 270.23C347.842 255.746 352.022 242.72 360.382 231.152L437.955 125.436H443.642L376.421 216.57C387.115 209.182 399.169 205.488 412.584 205.488ZM369.86 313.246C381.233 324.813 395.475 330.597 412.584 330.597C429.595 330.597 443.885 324.813 455.453 313.246C466.924 301.775 472.659 287.436 472.659 270.23C472.659 253.024 466.924 238.686 455.453 227.215C443.885 215.647 429.595 209.863 412.584 209.863C395.475 209.863 381.233 215.647 369.86 227.215C358.389 238.686 352.654 253.024 352.654 270.23C352.654 287.436 358.389 301.775 369.86 313.246Z" fill="white"/>
<path fill-rule="evenodd" clip-rule="evenodd" d="M462.093 220.843L462.105 220.855C475.46 234.21 482.136 250.771 482.136 270.23C482.136 289.779 475.465 306.392 462.105 319.751C448.751 333.105 432.19 339.781 412.731 339.781C393.182 339.781 376.569 333.11 363.21 319.751C349.85 306.392 343.18 289.779 343.18 270.23C343.18 254.781 347.66 240.796 356.603 228.42L356.613 228.407L435.594 120.773H452.878L391.493 203.995C398.152 201.881 405.19 200.825 412.585 200.825C431.953 200.825 448.546 207.504 462.08 220.83L462.093 220.843ZM360.383 231.152C355.731 237.589 352.373 244.479 350.31 251.819C348.665 257.67 347.843 263.806 347.843 270.23C347.843 285.778 352.298 299.202 361.208 310.503C362.828 312.556 364.594 314.54 366.507 316.454C366.522 316.469 366.537 316.484 366.552 316.499C366.562 316.508 366.571 316.517 366.58 316.526C378.977 328.888 394.312 335.085 412.585 335.118C412.633 335.118 412.682 335.118 412.731 335.118C430.97 335.118 446.305 328.921 458.735 316.526C458.759 316.502 458.784 316.478 458.808 316.454C460.721 314.54 462.487 312.557 464.106 310.504C473.017 299.203 477.472 285.778 477.472 270.23C477.472 258.881 475.073 248.657 470.275 239.557C467.346 234.003 463.524 228.869 458.808 224.153C458.759 224.104 458.71 224.056 458.661 224.008C446.051 211.662 430.692 205.488 412.585 205.488C403.178 205.488 394.441 207.305 386.372 210.937C383.251 212.343 380.229 214.02 377.308 215.969C377.012 216.167 376.717 216.367 376.423 216.57L443.643 125.436H437.957L360.383 231.152ZM365.562 231.976C365.063 232.592 364.578 233.214 364.108 233.844C364.101 233.852 364.094 233.861 364.088 233.87C359.767 239.661 356.67 246.065 354.799 253.08C353.37 258.44 352.655 264.156 352.655 270.23C352.655 284.74 356.733 297.21 364.89 307.641C366.386 309.553 368.018 311.397 369.788 313.173C369.812 313.197 369.837 313.221 369.861 313.246C381.235 324.814 395.476 330.598 412.585 330.598C412.633 330.598 412.682 330.597 412.731 330.597C429.678 330.564 443.919 324.78 455.454 313.246C455.479 313.221 455.503 313.197 455.527 313.173C457.297 311.397 458.93 309.553 460.425 307.641C468.582 297.21 472.66 284.74 472.66 270.23C472.66 259.634 470.485 250.125 466.135 241.704C463.456 236.519 459.953 231.746 455.625 227.386C455.616 227.378 455.608 227.369 455.6 227.361C455.551 227.312 455.503 227.263 455.454 227.215C443.886 215.647 429.596 209.863 412.585 209.863C400.626 209.863 390.068 212.689 380.912 218.341C380.535 218.573 380.16 218.811 379.788 219.053C379.409 219.299 379.033 219.551 378.659 219.807C378.626 219.83 378.592 219.853 378.559 219.876C375.494 221.988 372.595 224.435 369.861 227.215C368.325 228.751 366.892 230.338 365.562 231.976ZM373.172 309.962L373.186 309.976C383.631 320.6 396.65 325.934 412.585 325.934C428.415 325.934 441.502 320.603 452.157 309.948C462.696 299.409 467.997 286.283 467.997 270.23C467.997 254.178 462.696 241.051 452.157 230.512C441.502 219.857 428.415 214.526 412.585 214.526C396.65 214.526 383.631 219.861 373.186 230.484L373.172 230.498L373.158 230.512C362.619 241.051 357.318 254.178 357.318 270.23C357.318 286.283 362.619 299.409 373.158 309.948L373.172 309.962Z" fill="white"/>
<path fill-rule="evenodd" clip-rule="evenodd" d="M687 173.103C680.63 169.277 673.623 167.363 665.979 167.363C660.6 167.363 655.504 168.426 650.691 170.552C646.02 172.536 641.915 175.513 638.376 179.481V170.127H623.938V265.01H638.376V209.457C638.376 204.497 639.579 199.961 641.986 195.851C644.534 191.599 647.931 188.268 652.178 185.859C656.424 183.308 661.025 182.032 665.979 182.032C670.934 182.032 675.534 183.308 679.781 185.859C684.028 188.268 687.354 191.599 689.761 195.851C692.308 199.961 693.582 204.497 693.582 209.457V265.01H708.233V209.457C708.233 201.804 706.322 194.788 702.5 188.41C698.678 181.891 693.512 176.788 687 173.103Z" fill="white"/>
<path fill-rule="evenodd" clip-rule="evenodd" d="M761.821 344.114C779.863 344.114 794.932 338.733 807.028 327.969C819.124 317.411 825.172 304.084 825.172 287.99C825.172 257.135 804.26 236.787 762.436 226.946C725.943 218.335 707.696 200.396 707.696 173.129C707.696 159.085 712.873 147.347 723.227 137.916C733.478 128.588 746.342 123.924 761.821 123.924C777.403 123.924 790.422 128.998 800.878 139.147C811.231 149.5 816.408 162.16 816.408 177.126H821.021C821.021 160.52 815.383 146.681 804.107 135.61C792.626 124.641 778.53 119.157 761.821 119.157C744.907 119.157 730.864 124.283 719.69 134.534C708.311 144.785 702.622 157.65 702.622 173.129C702.622 202.959 722.15 222.436 761.206 231.559C800.468 240.99 820.098 259.8 820.098 287.99C820.098 302.752 814.563 314.951 803.492 324.586C792.318 334.427 778.428 339.348 761.821 339.348C745.317 339.348 731.427 334.017 720.151 323.356C708.875 312.695 703.237 299.42 703.237 283.531H698.624C698.624 300.855 704.672 315.258 716.768 326.739C728.865 338.323 743.882 344.114 761.821 344.114ZM552.321 416.621C569.205 416.621 583.307 411.585 594.627 401.512C605.947 391.631 611.607 379.16 611.607 364.098C611.607 335.222 592.037 316.179 552.896 306.97C518.744 298.911 501.668 282.123 501.668 256.605C501.668 243.462 506.512 232.478 516.202 223.652C525.795 214.922 537.835 210.557 552.321 210.557C566.902 210.557 579.086 215.306 588.871 224.803C598.56 234.492 603.405 246.34 603.405 260.346H607.722C607.722 244.805 602.446 231.854 591.893 221.493C581.148 211.229 567.958 206.096 552.321 206.096C536.492 206.096 523.349 210.893 512.892 220.486C502.243 230.079 496.919 242.119 496.919 256.605C496.919 284.522 515.194 302.749 551.745 311.287C588.487 320.113 606.859 337.716 606.859 364.098C606.859 377.912 601.678 389.328 591.317 398.346C580.861 407.556 567.862 412.161 552.321 412.161C536.875 412.161 523.876 407.172 513.324 397.195C502.771 387.218 497.495 374.795 497.495 359.925H493.178C493.178 376.138 498.838 389.616 510.158 400.361C521.478 411.201 535.532 416.621 552.321 416.621Z" fill="white"/>
<path fill-rule="evenodd" clip-rule="evenodd" d="M807.957 320.237C816.052 311.362 820.1 300.613 820.1 287.991C820.1 265.697 807.822 249.269 783.267 238.708C776.809 235.93 769.501 233.558 761.345 231.592C761.344 231.592 761.343 231.592 761.342 231.592C761.297 231.581 761.253 231.57 761.208 231.559C750.83 229.135 741.83 225.98 734.21 222.093C713.152 211.354 702.624 195.032 702.624 173.129C702.624 158.714 707.558 146.566 717.425 136.685C718.154 135.956 718.909 135.239 719.692 134.534C719.774 134.458 719.857 134.382 719.94 134.307C719.941 134.307 719.941 134.306 719.942 134.306C731.075 124.207 745.035 119.158 761.823 119.158C778.532 119.158 792.627 124.642 804.108 135.61C804.143 135.644 804.178 135.679 804.212 135.713C804.229 135.729 804.246 135.746 804.263 135.763C814.309 145.695 819.839 157.843 820.852 172.209C820.965 173.82 821.022 175.46 821.022 177.127H816.409C816.409 162.16 811.233 149.5 800.879 139.147C800.853 139.122 800.827 139.097 800.801 139.072C800.786 139.056 800.77 139.041 800.754 139.026C790.32 128.958 777.343 123.924 761.823 123.924C746.344 123.924 733.479 128.588 723.228 137.917C723.149 137.989 723.071 138.06 722.993 138.132C722.982 138.142 722.971 138.152 722.96 138.162C722.257 138.811 721.578 139.471 720.923 140.142C712.106 149.173 707.698 160.169 707.698 173.129C707.698 192.895 717.286 207.759 736.462 217.722C743.705 221.484 752.315 224.548 762.293 226.912C762.303 226.914 762.313 226.917 762.323 226.919C762.361 226.928 762.399 226.937 762.438 226.946C770.876 228.932 778.462 231.345 785.198 234.185C811.848 245.425 825.174 263.36 825.174 287.991C825.174 301.921 820.643 313.778 811.581 323.561C810.173 325.08 808.656 326.55 807.03 327.97C806.925 328.062 806.821 328.155 806.716 328.247C806.709 328.253 806.702 328.259 806.695 328.265C794.656 338.832 779.699 344.115 761.823 344.115C743.932 344.115 728.946 338.354 716.867 326.832C716.835 326.801 716.802 326.77 716.77 326.739C705.837 316.363 699.845 303.599 698.794 288.449C698.682 286.837 698.626 285.198 698.626 283.532H703.239C703.239 299.378 708.847 312.624 720.062 323.271C720.067 323.276 720.073 323.281 720.078 323.285C720.103 323.309 720.128 323.333 720.153 323.357C731.429 334.018 745.319 339.348 761.823 339.348C778.43 339.348 792.32 334.428 803.493 324.587C803.592 324.501 803.691 324.414 803.789 324.328C803.801 324.317 803.812 324.307 803.824 324.297C805.302 322.99 806.68 321.637 807.957 320.237ZM713.378 330.3C700.266 317.852 693.708 302.143 693.708 283.532V278.614H708.156V283.532C708.156 298.105 713.264 310.076 723.531 319.783C733.832 329.523 746.488 334.431 761.823 334.431C777.381 334.431 790.073 329.854 800.243 320.896L800.254 320.887L800.265 320.877C810.256 312.182 815.182 301.339 815.182 287.991C815.182 275.181 810.782 264.731 801.974 256.291C793.024 247.714 779.233 240.948 760.075 236.345C740.044 231.664 724.437 224.203 713.797 213.591C703.028 202.85 697.706 189.233 697.706 173.129C697.706 156.281 703.969 142.087 716.384 130.895C728.569 119.724 743.84 114.24 761.823 114.24C779.724 114.24 795.058 120.163 807.505 132.055L807.529 132.078L807.553 132.101C819.823 144.148 825.94 159.275 825.94 177.127V182.044H811.492V177.127C811.492 163.445 806.819 152.054 797.428 142.65C787.962 133.475 776.21 128.842 761.823 128.842C747.415 128.842 735.777 133.147 726.54 141.552C717.212 150.048 712.615 160.464 712.615 173.129C712.615 185.54 716.714 195.547 724.83 203.527C733.081 211.639 745.814 217.971 763.567 222.16C784.962 227.195 801.592 235.041 812.919 246.064C824.386 257.221 830.091 271.321 830.091 287.991C830.091 305.493 823.438 320.167 810.281 331.659C797.182 343.306 780.913 349.032 761.823 349.032C742.72 349.032 726.457 342.82 713.378 330.3ZM512.894 220.486C502.245 230.08 496.921 242.119 496.921 256.605C496.921 284.522 515.196 302.749 551.746 311.287C551.788 311.297 551.83 311.307 551.872 311.317C551.873 311.318 551.874 311.318 551.875 311.318C588.532 320.154 606.86 337.747 606.86 364.098C606.86 377.775 601.783 389.1 591.628 398.075C591.617 398.085 591.607 398.094 591.596 398.104C591.504 398.185 591.412 398.266 591.319 398.347C580.862 407.556 567.863 412.161 552.322 412.161C536.877 412.161 523.878 407.172 513.325 397.195C513.302 397.173 513.278 397.151 513.255 397.129C513.25 397.124 513.245 397.12 513.24 397.115C502.744 387.152 497.496 374.755 497.496 359.925H493.179C493.179 361.593 493.239 363.233 493.359 364.843C494.404 378.883 500.004 390.722 510.159 400.361C510.19 400.39 510.22 400.419 510.25 400.448C521.555 411.231 535.579 416.622 552.322 416.622C569.051 416.622 583.049 411.678 594.315 401.789C594.322 401.783 594.329 401.777 594.335 401.772C594.433 401.686 594.531 401.599 594.629 401.512C605.949 391.631 611.609 379.16 611.609 364.098C611.609 335.223 592.038 316.18 552.898 306.97C552.862 306.962 552.826 306.953 552.79 306.945C552.781 306.942 552.771 306.94 552.762 306.938C518.7 298.867 501.669 282.09 501.669 256.605C501.669 243.576 506.43 232.668 515.953 223.882C515.963 223.873 515.973 223.863 515.983 223.854C516.056 223.787 516.13 223.719 516.203 223.652C525.797 214.922 537.836 210.557 552.322 210.557C566.846 210.557 578.991 215.268 588.756 224.69C588.771 224.705 588.785 224.719 588.8 224.733C588.824 224.756 588.848 224.78 588.873 224.803C598.562 234.493 603.406 246.34 603.406 260.347H607.723C607.723 258.678 607.663 257.038 607.541 255.429C606.535 242.122 601.367 230.858 592.039 221.637C592.024 221.621 592.008 221.605 591.992 221.59C591.96 221.558 591.927 221.526 591.895 221.494C581.15 211.229 567.959 206.096 552.322 206.096C536.611 206.096 523.546 210.822 513.128 220.273C513.127 220.273 513.127 220.274 513.126 220.274C513.048 220.345 512.971 220.415 512.894 220.486ZM585.421 228.307C594.148 237.046 598.489 247.625 598.489 260.347V265.264H612.641V260.347C612.641 243.561 606.886 229.321 595.34 217.985L595.316 217.961L595.291 217.938C583.58 206.75 569.151 201.179 552.322 201.179C535.424 201.179 521.054 206.334 509.586 216.848C497.9 227.383 492.003 240.751 492.003 256.605C492.003 271.752 497.012 284.579 507.154 294.695C517.167 304.682 531.835 311.684 550.612 316.072C568.511 320.373 581.358 326.686 589.679 334.66C597.858 342.497 601.943 352.193 601.943 364.098C601.943 376.5 597.371 386.56 588.09 394.637L588.08 394.647L588.069 394.656C578.615 402.982 566.815 407.243 552.322 407.243C538.046 407.243 526.281 402.677 516.704 393.622C507.16 384.599 502.414 373.479 502.414 359.925V355.008H488.262V359.925C488.262 377.425 494.432 392.21 506.767 403.921C519.07 415.699 534.37 421.539 552.322 421.539C570.255 421.539 585.558 416.159 597.88 405.202C610.261 394.386 616.526 380.568 616.526 364.098C616.526 348.418 611.156 335.14 600.36 324.635C589.703 314.265 574.08 306.903 554.027 302.184C537.444 298.271 525.589 292.364 517.924 284.829C510.393 277.424 506.587 268.142 506.587 256.605C506.587 244.843 510.851 235.18 519.513 227.289C528.093 219.481 538.906 215.475 552.322 215.475C565.709 215.475 576.626 219.783 585.421 228.307Z" fill="white"/>
<path fill-rule="evenodd" clip-rule="evenodd" d="M46.3879 47.1165C76.0448 17.4625 116.254 0.783609 158.193 0.73938C200.129 0.787629 240.335 17.4682 269.988 47.1219C299.642 76.7755 316.322 116.981 316.371 158.917V340.247C316.371 340.333 316.347 341.298 316.323 342.241C316.301 343.139 316.28 344.017 316.28 344.091C314.244 429.196 243.267 498.425 158.193 498.425C116.254 498.381 76.0448 481.702 46.3879 452.048C16.7309 422.394 0.0482566 382.187 0 340.247V158.917C0.0482566 116.978 16.7309 76.7706 46.3879 47.1165ZM181.285 184.561V158.993C181.285 155.955 180.686 152.946 179.523 150.139C178.361 147.332 176.656 144.781 174.508 142.633C172.359 140.484 169.809 138.78 167.002 137.617C164.194 136.454 161.186 135.856 158.147 135.856C155.109 135.856 152.1 136.454 149.293 137.617C146.486 138.78 143.935 140.484 141.787 142.633C139.638 144.781 137.934 147.332 136.771 150.139C135.609 152.946 135.01 155.955 135.01 158.993C134.98 164.377 136.846 169.6 140.283 173.745C143.719 177.89 148.506 180.692 153.802 181.659C154.465 181.832 157.74 182.142 163.147 182.653L164.042 182.738C164.413 182.773 164.789 182.809 165.17 182.845C170.883 183.385 177.524 184.012 180.373 184.44L181.285 184.561ZM195.398 158.917V186.536L196.112 186.658C201.386 187.953 206.578 189.517 211.669 191.339V158.918C211.669 148.36 208.539 138.038 202.675 129.258C196.811 120.479 188.475 113.634 178.722 109.59C168.969 105.546 158.236 104.485 147.88 106.539C137.523 108.593 128.008 113.671 120.537 121.132C113.066 128.592 107.975 138.1 105.906 148.453C103.837 158.807 104.883 169.541 108.913 179.3C112.943 189.059 119.776 197.404 128.547 203.281C137.319 209.158 147.636 212.302 158.194 212.317C183.498 212.323 208.233 219.833 229.27 233.896C250.307 247.959 266.701 267.944 276.38 291.325C286.059 314.705 288.587 340.431 283.646 365.248C278.704 390.066 266.515 412.861 248.619 430.751C230.722 448.641 207.923 460.822 183.104 465.755C158.285 470.687 132.56 468.15 109.183 458.463C85.806 448.775 65.8264 432.374 51.7707 411.332C37.715 390.29 30.2144 365.553 30.2174 340.248V158.918C30.2174 124.984 43.6974 92.4407 67.6919 68.4462C91.6864 44.4517 124.23 30.9717 158.163 30.9717C192.097 30.9717 224.64 44.4517 248.635 68.4462C272.629 92.4407 286.109 124.984 286.109 158.918V247.131C291.715 254.847 296.626 263.079 300.769 271.732L302.288 274.892V158.917C302.483 139.875 298.902 120.983 291.75 103.333C284.598 85.6841 274.018 69.6278 260.622 56.0932C247.225 42.5586 231.279 31.8142 213.704 24.4815C196.129 17.1488 177.274 13.3733 158.231 13.3733C139.188 13.3733 120.333 17.1488 102.758 24.4815C85.1833 31.8142 69.2366 42.5586 55.8402 56.0932C42.4439 69.6278 31.8639 85.6841 24.712 103.333C17.5602 120.983 13.9785 139.875 14.174 158.917V340.247C14.2303 378.425 29.4222 415.023 56.4193 442.017C83.4163 469.011 120.015 484.199 158.193 484.251C235.58 484.251 300.191 421.327 302.197 343.985V340.202C302.147 308.681 291.779 278.044 272.678 252.97C253.576 227.896 226.792 209.766 196.416 201.348H196.157C185.073 198.235 173.639 196.535 162.128 196.289C160.776 196.183 159.439 196.183 158.147 196.183C150.776 196.186 143.57 194.003 137.44 189.91C131.309 185.817 126.53 179.998 123.708 173.189C120.885 166.38 120.145 158.886 121.581 151.656C123.017 144.427 126.565 137.785 131.776 132.572C136.987 127.359 143.627 123.808 150.856 122.369C158.086 120.93 165.579 121.667 172.39 124.487C179.2 127.307 185.021 132.083 189.116 138.212C193.212 144.341 195.398 151.546 195.398 158.917ZM272.072 230.385V158.918C272.072 143.969 269.128 129.167 263.407 115.356C257.686 101.545 249.301 88.9961 238.731 78.4258C228.161 67.8554 215.612 59.4706 201.801 53.7499C187.99 48.0293 173.188 45.0849 158.239 45.0849C143.291 45.0849 128.488 48.0293 114.677 53.7499C100.867 59.4706 88.3178 67.8554 77.7474 78.4258C67.1771 88.9961 58.7922 101.545 53.0716 115.356C47.351 129.167 44.4066 143.969 44.4066 158.918V340.248C44.4006 362.762 51.0709 384.772 63.574 403.495C76.0771 422.218 93.8514 436.813 114.649 445.434C135.447 454.056 158.335 456.316 180.417 451.93C202.5 447.543 222.786 436.707 238.71 420.792C254.634 404.876 265.481 384.596 269.879 362.516C274.277 340.436 272.029 317.547 263.419 296.744C254.808 275.942 240.223 258.16 221.507 245.647C202.79 233.134 180.784 226.452 158.27 226.446C144.913 226.449 131.856 222.491 120.749 215.072C109.642 207.654 100.985 197.109 95.8712 184.77C90.7579 172.431 89.4184 158.853 92.0223 145.753C94.6262 132.653 101.056 120.619 110.5 111.174C119.943 101.728 131.975 95.2952 145.075 92.6884C158.174 90.0816 171.753 91.418 184.093 96.5286C196.433 101.639 206.98 110.294 214.401 121.4C221.821 132.505 225.782 145.561 225.782 158.918V197.178C231.264 199.764 236.596 202.665 241.749 205.867V158.966C241.749 142.44 236.849 126.286 227.668 112.545C218.487 98.8047 205.437 88.0952 190.169 81.7711C174.902 75.447 158.101 73.7923 141.893 77.0163C125.685 80.2403 110.797 88.1982 99.1116 99.8836C87.4262 111.569 79.4683 126.457 76.2443 142.665C73.0203 158.873 74.675 175.674 80.9991 190.941C87.3232 206.209 98.0327 219.259 111.773 228.44C125.514 237.621 141.668 242.521 158.194 242.521C177.523 242.521 196.418 248.253 212.49 258.992C228.561 269.73 241.087 284.994 248.484 302.851C255.881 320.709 257.816 340.359 254.046 359.317C250.275 378.274 240.967 395.688 227.299 409.356C213.631 423.024 196.218 432.331 177.26 436.102C158.302 439.873 138.652 437.938 120.795 430.541C102.937 423.144 87.6738 410.618 76.9352 394.546C66.1965 378.475 60.4648 359.58 60.4648 340.251V158.921C60.7853 133.214 71.222 108.669 89.5136 90.6045C107.805 72.5396 132.478 62.4097 158.186 62.4097C183.895 62.4097 208.568 72.5396 226.859 90.6045C245.151 108.669 255.588 133.214 255.908 158.921V215.781C256.607 216.329 257.301 216.884 257.992 217.445C262.954 221.479 267.655 225.802 272.072 230.385ZM161.396 303.617C147.495 302.265 138.456 301.095 129.174 299.439L120.925 297.92V340.169C121.143 349.804 125.087 358.979 131.928 365.767C138.769 372.555 147.974 376.428 157.611 376.571C167.247 376.715 176.564 373.118 183.604 366.537C190.644 359.956 194.86 350.902 195.365 341.278V339.546C195.106 330.43 191.5 321.728 185.234 315.101C178.969 308.474 170.483 304.386 161.396 303.617ZM181.282 340.199V340.807C181.207 346.943 178.698 352.799 174.306 357.085C169.915 361.371 164 363.737 157.864 363.663C151.727 363.588 145.872 361.079 141.585 356.687C137.299 352.296 134.933 346.381 135.007 340.245V314.738L135.904 314.859C142.695 315.816 149.121 316.576 156.079 317.259C157.355 317.426 158.631 317.533 159.846 317.624H160.347C165.99 318.186 171.233 320.791 175.088 324.949C178.944 329.106 181.147 334.53 181.282 340.199ZM204.615 270.732C190.874 261.55 174.72 256.65 158.194 256.65C141.846 256.663 125.759 252.553 111.419 244.701C97.0804 236.849 84.9528 225.508 76.158 211.728L74.6388 209.434V340.205C74.6388 356.731 79.5392 372.885 88.7204 386.626C97.9016 400.367 110.951 411.076 126.219 417.4C141.487 423.724 158.287 425.379 174.495 422.155C190.703 418.931 205.591 410.973 217.277 399.288C228.962 387.602 236.92 372.714 240.144 356.506C243.368 340.298 241.713 323.498 235.389 308.23C229.065 292.962 218.355 279.913 204.615 270.732ZM158.195 272.778C137.306 272.778 120.474 268.965 105.206 260.746L92.4599 253.727L90.6673 252.74V340.245C90.6553 353.604 94.6055 366.665 102.018 377.778C109.431 388.891 119.973 397.556 132.311 402.676C144.649 407.796 158.229 409.142 171.332 406.544C184.435 403.945 196.473 397.518 205.923 388.077C215.373 378.635 221.81 366.603 224.421 353.502C227.031 340.402 225.698 326.821 220.589 314.478C215.479 302.136 206.824 291.586 195.718 284.163C184.612 276.74 171.553 272.778 158.195 272.778ZM211.67 340.245C211.67 354.408 206.044 367.99 196.03 378.004C186.016 388.019 172.433 393.645 158.271 393.645C144.109 393.645 130.526 388.019 120.512 378.004C110.498 367.99 104.872 354.408 104.872 340.245V276.318L105.981 276.804C121.355 283.564 138.446 286.846 158.271 286.846C172.429 286.862 186.002 292.493 196.012 302.504C206.023 312.515 211.654 326.088 211.67 340.245Z" fill="white"/>
</svg>
