<svg width="488" height="308" viewBox="0 0 488 308" fill="none" xmlns="http://www.w3.org/2000/svg">
<path d="M70.1402 91.3703C88.3184 91.3703 103.726 97.5917 116.363 110.035C128.806 122.477 135.028 137.837 135.028 156.112C135.028 174.485 128.806 189.893 116.363 202.335C103.921 214.778 88.5615 221 70.286 221C51.9134 221 36.5056 214.778 24.0627 202.335C11.6199 189.893 5.39844 174.485 5.39844 156.112C5.39844 141.628 9.57846 128.602 17.9385 117.034L95.512 11.318H101.199L33.9781 102.452C44.6712 95.0643 56.7252 91.3703 70.1402 91.3703ZM27.4165 199.127C38.79 210.695 53.0313 216.479 70.1402 216.479C87.1519 216.479 101.442 210.695 113.01 199.127C124.481 187.657 130.216 173.318 130.216 156.112C130.216 138.906 124.481 124.567 113.01 113.097C101.442 101.529 87.1519 95.7448 70.1402 95.7448C53.0313 95.7448 38.79 101.529 27.4165 113.097C15.9457 124.567 10.2103 138.906 10.2103 156.112C10.2103 173.318 15.9457 187.657 27.4165 199.127Z" fill="white"/>
<path fill-rule="evenodd" clip-rule="evenodd" d="M119.649 106.724L119.662 106.737C133.016 120.091 139.692 136.653 139.692 156.112C139.692 175.661 133.022 192.273 119.662 205.633C106.308 218.987 89.7462 225.663 70.2872 225.663C50.7385 225.663 34.1259 218.992 20.7665 205.633C7.40702 192.273 0.736328 175.661 0.736328 156.112C0.736328 140.663 5.2165 126.678 14.1601 114.302L14.17 114.288L93.151 6.65466H110.434L49.0497 89.8766C55.7091 87.7628 62.7462 86.707 70.1414 86.707C89.5097 86.707 106.103 93.3861 119.636 106.712L119.649 106.724ZM17.9397 117.034C13.2873 123.471 9.92946 130.36 7.86614 137.701C6.2218 143.551 5.39963 149.688 5.39963 156.112C5.39963 171.659 9.85474 185.084 18.7649 196.385C20.3841 198.438 22.1505 200.422 24.0639 202.335C24.079 202.35 24.094 202.365 24.109 202.38C24.1183 202.39 24.1276 202.399 24.1369 202.408C36.534 214.77 51.8689 220.967 70.1414 220.999C70.19 221 70.2386 221 70.2872 221C88.5269 221 103.862 214.802 116.292 202.408C116.316 202.384 116.34 202.36 116.365 202.335C118.278 200.422 120.044 198.439 121.663 196.386C130.573 185.085 135.029 171.66 135.029 156.112C135.029 144.763 132.63 134.539 127.831 125.439C124.903 119.885 121.081 114.75 116.365 110.035C116.316 109.986 116.267 109.938 116.218 109.89C103.608 97.5435 88.2491 91.3703 70.1414 91.3703C60.7347 91.3703 51.9972 93.1866 43.9289 96.8192C40.8073 98.2246 37.786 99.9018 34.8648 101.851C34.5686 102.049 34.2735 102.249 33.9793 102.452L101.2 11.318H95.5132L17.9397 117.034ZM23.1187 117.858C22.6194 118.473 22.1346 119.096 21.6642 119.725C21.6576 119.734 21.6509 119.743 21.6443 119.752C17.3232 125.543 14.227 131.946 12.3557 138.962C10.9262 144.321 10.2115 150.038 10.2115 156.112C10.2115 170.621 14.29 183.092 22.4468 193.523C23.9424 195.435 25.575 197.279 27.3448 199.054C27.3691 199.079 27.3934 199.103 27.4177 199.127C38.7912 210.695 53.0325 216.479 70.1414 216.479C70.19 216.479 70.2386 216.479 70.2872 216.479C87.2348 216.446 101.476 210.662 113.011 199.127C113.035 199.103 113.06 199.079 113.084 199.054C114.854 197.279 116.486 195.435 117.982 193.523C126.139 183.092 130.217 170.621 130.217 156.112C130.217 145.516 128.042 136.007 123.692 127.586C121.013 122.401 117.509 117.628 113.181 113.268C113.173 113.259 113.165 113.251 113.157 113.243C113.108 113.194 113.06 113.145 113.011 113.097C101.443 101.529 87.1531 95.7447 70.1414 95.7447C58.1826 95.7447 47.6249 98.5706 38.4683 104.222C38.0914 104.455 37.7169 104.692 37.3448 104.935C36.966 105.181 36.5896 105.433 36.2157 105.689C36.1823 105.712 36.1489 105.735 36.1155 105.758C33.0505 107.87 30.1513 110.316 27.4177 113.097C25.8819 114.632 24.4489 116.22 23.1187 117.858ZM30.7291 195.844L30.7429 195.858C41.1878 206.481 54.2068 211.816 70.1414 211.816C85.9713 211.816 99.0582 206.485 109.713 195.83C120.253 185.291 125.554 172.165 125.554 156.112C125.554 140.059 120.253 126.933 109.713 116.394C99.0582 105.739 85.9713 100.408 70.1414 100.408C54.2068 100.408 41.1878 105.743 30.7429 116.366L30.7291 116.38L30.7151 116.394C20.1761 126.933 14.8748 140.059 14.8748 156.112C14.8748 172.165 20.1761 185.291 30.7151 195.83L30.7291 195.844Z" fill="white"/>
<path fill-rule="evenodd" clip-rule="evenodd" d="M344.557 58.9852C338.187 55.1585 331.18 53.2451 323.536 53.2451C318.157 53.2451 313.061 54.3081 308.248 56.4341C303.577 58.4183 299.472 61.3946 295.933 65.3631V56.0089H281.494V150.892H295.933V95.3392C295.933 90.3786 297.136 85.8432 299.542 81.733C302.09 77.4811 305.488 74.1504 309.734 71.741C313.981 69.1899 318.582 67.9143 323.536 67.9143C328.49 67.9143 333.091 69.1899 337.338 71.741C341.584 74.1504 344.911 77.4811 347.317 81.733C349.865 85.8432 351.139 90.3786 351.139 95.3392V150.892H365.79V95.3392C365.79 87.6858 363.879 80.6701 360.057 74.2922C356.235 67.7725 351.068 62.6702 344.557 58.9852Z" fill="white"/>
<path fill-rule="evenodd" clip-rule="evenodd" d="M419.38 229.996C437.422 229.996 452.491 224.615 464.587 213.851C476.683 203.293 482.731 189.966 482.731 173.872C482.731 143.017 461.819 122.669 419.995 112.828C383.502 104.217 365.255 86.278 365.255 59.0105C365.255 44.9667 370.432 33.2293 380.785 23.7984C391.036 14.4701 403.901 9.80588 419.38 9.80588C434.961 9.80588 447.98 14.8801 458.436 25.0286C468.79 35.382 473.966 48.042 473.966 63.0084H478.579C478.579 46.4018 472.941 32.563 461.665 21.492C450.184 10.5234 436.089 5.03918 419.38 5.03918C402.466 5.03918 388.422 10.1647 377.249 20.4156C365.87 30.6666 360.181 43.5315 360.181 59.0105C360.181 88.8408 379.709 108.318 418.765 117.441C458.026 126.872 477.657 145.682 477.657 173.872C477.657 188.634 472.121 200.832 461.05 210.468C449.877 220.309 435.987 225.23 419.38 225.23C402.876 225.23 388.986 219.899 377.71 209.238C366.434 198.577 360.796 185.302 360.796 169.413H356.183C356.183 186.737 362.231 201.14 374.327 212.621C386.423 224.205 401.441 229.996 419.38 229.996ZM209.879 302.503C226.763 302.503 240.866 297.467 252.186 287.394C263.506 277.513 269.166 265.042 269.166 249.98C269.166 221.104 249.595 202.061 210.455 192.852C176.303 184.793 159.226 168.005 159.226 142.487C159.226 129.344 164.071 118.36 173.76 109.534C183.354 100.804 195.393 96.439 209.879 96.439C224.461 96.439 236.644 101.188 246.43 110.685C256.119 120.374 260.964 132.222 260.964 146.228H265.281C265.281 130.687 260.004 117.736 249.452 107.375C238.707 97.1105 225.516 91.9781 209.879 91.9781C194.05 91.9781 180.907 96.7747 170.451 106.368C159.802 115.961 154.478 128.001 154.478 142.487C154.478 170.403 172.753 188.631 209.304 197.169C246.046 205.995 264.417 223.598 264.417 249.98C264.417 263.794 259.237 275.21 248.876 284.228C238.419 293.438 225.42 298.043 209.879 298.043C194.434 298.043 181.435 293.054 170.882 283.077C160.33 273.1 155.053 260.677 155.053 245.807H150.736C150.736 262.02 156.396 275.498 167.716 286.243C179.037 297.083 193.091 302.503 209.879 302.503Z" fill="white"/>
<path fill-rule="evenodd" clip-rule="evenodd" d="M465.516 206.118C473.611 197.244 477.658 186.495 477.658 173.873C477.658 151.579 465.381 135.151 440.825 124.59C434.367 121.812 427.06 119.44 418.903 117.474C418.903 117.474 418.902 117.474 418.901 117.474C418.856 117.463 418.811 117.452 418.766 117.441C408.388 115.017 399.389 111.862 391.768 107.975C370.711 97.2358 360.182 80.9144 360.182 59.0108C360.182 44.596 365.116 32.4482 374.984 22.5672C375.712 21.8378 376.468 21.1207 377.25 20.4159C377.333 20.34 377.416 20.2644 377.499 20.1891C377.499 20.1886 377.5 20.1881 377.501 20.1875C388.633 10.0888 402.594 5.03949 419.382 5.03949C436.091 5.03949 450.186 10.5238 461.667 21.4923C461.702 21.5264 461.736 21.5605 461.771 21.5947C461.788 21.6114 461.805 21.6282 461.822 21.6449C471.868 31.5765 477.397 43.7252 478.41 58.0911C478.524 59.7024 478.581 61.3416 478.581 63.0087H473.968C473.968 48.0423 468.791 35.3823 458.438 25.0289C458.412 25.0037 458.386 24.9786 458.36 24.9536C458.344 24.9384 458.329 24.9233 458.313 24.9082C447.878 14.8402 434.901 9.80619 419.382 9.80619C403.903 9.80619 391.038 14.4704 380.787 23.7987C380.708 23.8705 380.63 23.9423 380.551 24.0143C380.541 24.0243 380.53 24.0343 380.519 24.0443C379.816 24.6932 379.137 25.353 378.482 26.0236C369.665 35.0552 365.256 46.0509 365.256 59.0108C365.256 78.7768 374.845 93.6411 394.021 103.604C401.263 107.366 409.874 110.43 419.852 112.794C419.862 112.796 419.871 112.799 419.881 112.801C419.92 112.81 419.958 112.819 419.997 112.828C428.434 114.814 436.021 117.227 442.756 120.067C469.407 131.307 482.732 149.242 482.732 173.873C482.732 187.803 478.201 199.659 469.139 209.443C467.732 210.962 466.215 212.432 464.588 213.852C464.484 213.944 464.38 214.037 464.275 214.128C464.268 214.135 464.261 214.141 464.254 214.147C452.214 224.714 437.257 229.997 419.382 229.997C401.49 229.997 386.505 224.236 374.426 212.714C374.393 212.683 374.361 212.652 374.329 212.621C363.396 202.245 357.404 189.481 356.352 174.331C356.24 172.719 356.184 171.08 356.184 169.414H360.797C360.797 185.26 366.405 198.506 377.621 209.153C377.626 209.158 377.631 209.163 377.636 209.167C377.661 209.191 377.686 209.215 377.711 209.239C388.987 219.9 402.878 225.23 419.382 225.23C435.988 225.23 449.878 220.31 461.052 210.469C461.151 210.382 461.249 210.296 461.348 210.209C461.359 210.199 461.371 210.189 461.382 210.179C462.861 208.872 464.239 207.519 465.516 206.118ZM370.937 216.182C357.825 203.734 351.267 188.024 351.267 169.414V164.496H365.715V169.414C365.715 183.987 370.822 195.958 381.09 205.665C391.391 215.405 404.046 220.313 419.382 220.313C434.94 220.313 447.631 215.736 457.802 206.778L457.812 206.769L457.823 206.759C467.814 198.064 472.741 187.221 472.741 173.873C472.741 161.063 468.341 150.613 459.533 142.173C450.582 133.596 436.791 126.83 417.633 122.226C397.603 117.546 381.995 110.085 371.356 99.4729C360.587 88.732 355.265 75.1147 355.265 59.0108C355.265 42.1627 361.527 27.9691 373.943 16.7765C386.128 5.60571 401.398 0.121948 419.382 0.121948C437.283 0.121948 452.616 6.04475 465.064 17.9366L465.088 17.9598L465.112 17.9833C477.382 30.0302 483.498 45.1572 483.498 63.0087V67.9262H469.05V63.0087C469.05 49.3269 464.378 37.9359 454.987 28.5324C445.521 19.3571 433.769 14.7237 419.382 14.7237C404.974 14.7237 393.336 19.029 384.098 27.4342C374.771 35.9302 370.174 46.3464 370.174 59.0108C370.174 71.422 374.273 81.4294 382.389 89.4092C390.64 97.5206 403.372 103.853 421.126 108.042C442.521 113.077 459.15 120.923 470.478 131.946C481.945 143.103 487.65 157.203 487.65 173.873C487.65 191.375 480.997 206.049 467.839 217.541C454.741 229.188 438.472 234.914 419.382 234.914C400.279 234.914 384.016 228.702 370.937 216.182ZM170.452 106.368C159.804 115.962 154.479 128.001 154.479 142.487C154.479 170.404 172.755 188.631 209.305 197.169C209.347 197.179 209.389 197.189 209.431 197.199C209.431 197.2 209.432 197.2 209.433 197.2C246.09 206.036 264.419 223.629 264.419 249.98C264.419 263.657 259.341 274.982 249.187 283.957C249.176 283.967 249.165 283.976 249.154 283.986C249.062 284.067 248.97 284.148 248.877 284.229C238.421 293.438 225.422 298.043 209.881 298.043C194.435 298.043 181.436 293.054 170.884 283.077C170.86 283.055 170.837 283.033 170.813 283.011C170.809 283.006 170.804 283.002 170.799 282.997C160.303 273.034 155.055 260.637 155.055 245.807H150.738C150.738 247.475 150.798 249.115 150.918 250.725C151.963 264.765 157.563 276.604 167.718 286.243C167.748 286.272 167.778 286.301 167.809 286.33C179.113 297.112 193.137 302.504 209.881 302.504C226.609 302.504 240.607 297.56 251.874 287.671C251.881 287.665 251.887 287.659 251.894 287.654C251.992 287.567 252.09 287.481 252.187 287.394C263.507 277.513 269.167 265.042 269.167 249.98C269.167 221.104 249.597 202.062 210.456 192.852C210.42 192.844 210.384 192.835 210.348 192.827C210.339 192.824 210.33 192.822 210.321 192.82C176.259 184.749 159.228 167.972 159.228 142.487C159.228 129.458 163.989 118.55 173.511 109.764C173.521 109.755 173.531 109.745 173.542 109.736C173.615 109.669 173.688 109.601 173.762 109.534C183.355 100.804 195.395 96.4393 209.881 96.4393C224.405 96.4393 236.549 101.15 246.314 110.572C246.329 110.587 246.344 110.601 246.358 110.615C246.383 110.638 246.407 110.662 246.431 110.685C256.12 120.375 260.965 132.222 260.965 146.229H265.282C265.282 144.56 265.221 142.92 265.1 141.311C264.093 128.004 258.926 116.74 249.598 107.519C249.582 107.503 249.566 107.487 249.551 107.472C249.518 107.44 249.486 107.408 249.453 107.376C238.709 97.1108 225.518 91.9784 209.881 91.9784C194.17 91.9784 181.105 96.7038 170.686 106.155C170.686 106.155 170.685 106.156 170.685 106.156C170.607 106.227 170.53 106.297 170.452 106.368ZM242.98 114.188C251.707 122.928 256.048 133.507 256.048 146.229V151.146H270.2V146.229C270.2 129.443 264.445 115.203 252.898 103.867L252.874 103.843L252.85 103.82C241.139 92.6318 226.71 87.0609 209.881 87.0609C192.982 87.0609 178.612 92.216 167.144 102.73C155.459 113.265 149.562 126.633 149.562 142.487C149.562 157.634 154.57 170.461 164.713 180.577C174.726 190.564 189.393 197.566 208.17 201.954C226.069 206.255 238.917 212.568 247.238 220.542C255.416 228.379 259.501 238.075 259.501 249.98C259.501 262.382 254.93 272.442 245.649 280.519L245.638 280.529L245.627 280.538C236.174 288.864 224.373 293.125 209.881 293.125C195.604 293.125 183.84 288.559 174.262 279.504C164.718 270.481 159.972 259.361 159.972 245.807V240.89H145.82V245.807C145.82 263.307 151.99 278.092 164.326 289.803C176.629 301.581 191.928 307.421 209.881 307.421C227.814 307.421 243.116 302.041 255.439 291.084C267.82 280.268 274.085 266.45 274.085 249.98C274.085 234.3 268.715 221.022 257.919 210.517C247.262 200.147 231.639 192.785 211.586 188.066C195.003 184.153 183.148 178.246 175.483 170.71C167.951 163.306 164.145 154.024 164.145 142.487C164.145 130.725 168.41 121.062 177.072 113.171C185.652 105.363 196.465 101.357 209.881 101.357C223.268 101.357 234.185 105.665 242.98 114.188Z" fill="white"/>
</svg>
