<svg width="67" height="51" viewBox="0 0 67 51" fill="none" xmlns="http://www.w3.org/2000/svg">
<path d="M0.483573 29.9463V0H13.3637C16.0275 0 18.323 0.442064 20.2501 1.32619C22.1771 2.1818 23.6649 3.42243 24.7135 5.04808C25.762 6.67374 26.2863 8.61311 26.2863 10.8662C26.2863 13.0908 25.762 15.0159 24.7135 16.6416C23.6649 18.2387 22.1771 19.4651 20.2501 20.3207C18.323 21.1763 16.0275 21.6041 13.3637 21.6041H4.30934L7.36996 18.5667V29.9463H0.483573ZM19.3999 29.9463L11.9609 19.08H19.3149L26.8389 29.9463H19.3999ZM7.36996 19.3367L4.30934 16.0854H12.9811C15.1065 16.0854 16.6935 15.6291 17.742 14.7164C18.7906 13.7753 19.3149 12.4919 19.3149 10.8662C19.3149 9.21204 18.7906 7.92863 17.742 7.01598C16.6935 6.10333 15.1065 5.64701 12.9811 5.64701H4.30934L7.36996 2.35292V19.3367Z" fill="white"/>
<path d="M38.0761 12.0641H52.4015V17.4544H38.0761V12.0641ZM38.5862 24.3848H54.7819V29.9463H31.7423V0H54.2293V5.56145H38.5862V24.3848Z" fill="white"/>
<path d="M62.1771 14.9303C61.0435 14.9303 60.0658 14.5453 59.244 13.7753C58.4505 12.9767 58.0538 11.9642 58.0538 10.7379C58.0538 9.5115 58.4505 8.52755 59.244 7.78603C60.0658 7.01598 61.0435 6.63096 62.1771 6.63096C63.339 6.63096 64.3167 7.01598 65.1102 7.78603C65.9037 8.52755 66.3004 9.5115 66.3004 10.7379C66.3004 11.9642 65.9037 12.9767 65.1102 13.7753C64.3167 14.5453 63.339 14.9303 62.1771 14.9303ZM62.1771 30.2885C61.0435 30.2885 60.0658 29.9035 59.244 29.1334C58.4505 28.3349 58.0538 27.3224 58.0538 26.096C58.0538 24.8697 58.4505 23.8857 59.244 23.1442C60.0658 22.3741 61.0435 21.9891 62.1771 21.9891C63.339 21.9891 64.3167 22.3741 65.1102 23.1442C65.9037 23.8857 66.3004 24.8697 66.3004 26.096C66.3004 27.3224 65.9037 28.3349 65.1102 29.1334C64.3167 29.9035 63.339 30.2885 62.1771 30.2885Z" fill="white"/>
<path d="M4.40626 50.1989C3.5614 50.1989 2.73604 50.0869 1.93017 49.8629C1.12431 49.6388 0.480919 49.3555 0 49.0129L0.935843 47.135C1.40376 47.4513 1.96267 47.7082 2.61256 47.9059C3.27545 48.0904 3.92534 48.1827 4.56224 48.1827C6.01799 48.1827 6.74587 47.7939 6.74587 47.0164C6.74587 46.6474 6.5574 46.3904 6.18046 46.2455C5.81652 46.1005 5.22512 45.9621 4.40626 45.8304C3.54841 45.6986 2.84652 45.547 2.30061 45.3757C1.7677 45.2044 1.29978 44.9079 0.896852 44.4862C0.506918 44.0513 0.31195 43.4517 0.31195 42.6874C0.31195 41.6859 0.721382 40.8886 1.54024 40.2956C2.3721 39.6894 3.48991 39.3863 4.89368 39.3863C5.60856 39.3863 6.32344 39.4719 7.03832 39.6433C7.7532 39.8014 8.3381 40.0188 8.79303 40.2956L7.85718 42.1734C6.97333 41.6463 5.97899 41.3828 4.87418 41.3828C4.1593 41.3828 3.61339 41.4948 3.23646 41.7188C2.87252 41.9297 2.69055 42.213 2.69055 42.5688C2.69055 42.9641 2.88552 43.2475 3.27545 43.4188C3.67839 43.5769 4.29578 43.7285 5.12764 43.8734C5.9595 44.0052 6.64188 44.1568 7.17479 44.3281C7.7077 44.4994 8.16263 44.7893 8.53956 45.1978C8.9295 45.6063 9.12447 46.1862 9.12447 46.9373C9.12447 47.9257 8.70204 48.7164 7.85718 49.3094C7.01232 49.9024 5.86202 50.1989 4.40626 50.1989Z" fill="white"/>
<path d="M15.9025 50.1989C14.8496 50.1989 13.9008 49.9683 13.0559 49.5071C12.2111 49.0458 11.5482 48.4067 11.0673 47.5896C10.5994 46.7594 10.3654 45.8238 10.3654 44.7827C10.3654 43.7416 10.5994 42.8126 11.0673 41.9955C11.5482 41.1785 12.2111 40.5394 13.0559 40.0781C13.9008 39.6169 14.8496 39.3863 15.9025 39.3863C16.9683 39.3863 17.9236 39.6169 18.7685 40.0781C19.6133 40.5394 20.2697 41.1785 20.7377 41.9955C21.2186 42.8126 21.459 43.7416 21.459 44.7827C21.459 45.8238 21.2186 46.7594 20.7377 47.5896C20.2697 48.4067 19.6133 49.0458 18.7685 49.5071C17.9236 49.9683 16.9683 50.1989 15.9025 50.1989ZM15.9025 48.0838C16.7993 48.0838 17.5402 47.7807 18.1251 47.1745C18.71 46.5683 19.0024 45.7711 19.0024 44.7827C19.0024 43.7944 18.71 42.9971 18.1251 42.3909C17.5402 41.7847 16.7993 41.4816 15.9025 41.4816C15.0056 41.4816 14.2647 41.7847 13.6798 42.3909C13.1079 42.9971 12.822 43.7944 12.822 44.7827C12.822 45.7711 13.1079 46.5683 13.6798 47.1745C14.2647 47.7807 15.0056 48.0838 15.9025 48.0838Z" fill="white"/>
<path d="M33.8693 39.5049V50.0605H31.5492V48.7164C31.1593 49.1908 30.6718 49.5598 30.0869 49.8233C29.502 50.0737 28.8716 50.1989 28.1958 50.1989C26.805 50.1989 25.7067 49.8102 24.9008 49.0326C24.1079 48.242 23.7115 47.0757 23.7115 45.5339V39.5049H26.1486V45.1978C26.1486 46.1466 26.3566 46.8583 26.7725 47.3327C27.2014 47.7939 27.8058 48.0245 28.5857 48.0245C29.4565 48.0245 30.1454 47.7544 30.6523 47.2141C31.1723 46.6606 31.4322 45.8699 31.4322 44.842V39.5049H33.8693Z" fill="white"/>
<path d="M39.3803 41.0467C40.0822 39.9398 41.317 39.3863 43.0847 39.3863V41.7386C42.8767 41.699 42.6883 41.6793 42.5193 41.6793C41.5705 41.6793 40.8296 41.9626 40.2967 42.5293C39.7638 43.0827 39.4973 43.8866 39.4973 44.9408V50.0605H37.0602V39.5049H39.3803V41.0467Z" fill="white"/>
<path d="M49.8336 50.1989C48.7548 50.1989 47.7865 49.9683 46.9286 49.5071C46.0708 49.0458 45.4014 48.4067 44.9204 47.5896C44.4395 46.7594 44.1991 45.8238 44.1991 44.7827C44.1991 43.7416 44.4395 42.8126 44.9204 41.9955C45.4014 41.1785 46.0643 40.5394 46.9091 40.0781C47.767 39.6169 48.7418 39.3863 49.8336 39.3863C50.8605 39.3863 51.7573 39.5971 52.5242 40.0188C53.304 40.4405 53.8889 41.0467 54.2789 41.8374L52.4072 42.9444C52.1082 42.4568 51.7313 42.0944 51.2764 41.8572C50.8344 41.6068 50.347 41.4816 49.8141 41.4816C48.9043 41.4816 48.1504 41.7847 47.5525 42.3909C46.9546 42.9839 46.6557 43.7812 46.6557 44.7827C46.6557 45.7842 46.9481 46.5881 47.533 47.1943C48.1309 47.7873 48.8913 48.0838 49.8141 48.0838C50.347 48.0838 50.8344 47.9652 51.2764 47.728C51.7313 47.4776 52.1082 47.1086 52.4072 46.6211L54.2789 47.728C53.8759 48.5187 53.2845 49.1315 52.5047 49.5664C51.7378 49.9881 50.8475 50.1989 49.8336 50.1989Z" fill="white"/>
<path d="M66.0206 44.842C66.0206 45.0133 66.0076 45.2571 65.9816 45.5734H57.8125C57.9555 46.3509 58.3259 46.9703 58.9238 47.4315C59.5347 47.8796 60.2886 48.1036 61.1854 48.1036C62.3292 48.1036 63.2716 47.7214 64.0125 46.9571L65.3187 48.4792C64.8508 49.0458 64.2594 49.4741 63.5445 49.764C62.8297 50.0539 62.0238 50.1989 61.1269 50.1989C59.9831 50.1989 58.9758 49.9683 58.105 49.5071C57.2341 49.0458 56.5582 48.4067 56.0773 47.5896C55.6094 46.7594 55.3754 45.8238 55.3754 44.7827C55.3754 43.7548 55.6029 42.8324 56.0578 42.0153C56.5257 41.1851 57.1691 40.5394 57.988 40.0781C58.8068 39.6169 59.7297 39.3863 60.7565 39.3863C61.7703 39.3863 62.6737 39.6169 63.4665 40.0781C64.2724 40.5262 64.8963 41.1653 65.3382 41.9955C65.7931 42.8126 66.0206 43.7614 66.0206 44.842ZM60.7565 41.363C59.9766 41.363 59.3137 41.6002 58.7678 42.0746C58.2349 42.5358 57.91 43.1552 57.793 43.9327H63.7005C63.5965 43.1684 63.2781 42.549 62.7452 42.0746C62.2123 41.6002 61.5494 41.363 60.7565 41.363Z" fill="white"/>
</svg>
